<svg id="Capa_1" data-name="Capa 1" xmlns="http://www.w3.org/2000/svg" xmlns:xlink="http://www.w3.org/1999/xlink" viewBox="0 0 640.35 388.71"><defs><style>.cls-1{isolation:isolate;}.cls-2{fill:#2e5b84;}.cls-3{fill:url(#Degradado_sin_nombre_6);}.cls-4{fill:#6fd95f;}.cls-5{fill:url(#Degradado_sin_nombre_5);}</style><radialGradient id="Degradado_sin_nombre_6" cx="-945.8" cy="1363.02" r="0.42" gradientTransform="matrix(53.56, 0, 0, -53.75, 50966.3, 73427.87)" gradientUnits="userSpaceOnUse"><stop offset="0.24" stop-color="#2ea684"/><stop offset="1" stop-color="#2e5b84"/></radialGradient><radialGradient id="Degradado_sin_nombre_5" cx="-952.14" cy="1361.63" r="0.47" gradientTransform="matrix(82.88, 0, 0, -82.89, 79224.03, 113100.2)" gradientUnits="userSpaceOnUse"><stop offset="0.47" stop-color="#6bd05c"/><stop offset="1" stop-color="#2ea684"/></radialGradient></defs><title>bienvenidos</title><g id="Bienvenido_a" data-name="Bienvenido a"><g id="Bienvenido_a-2" data-name="Bienvenido a-2" class="cls-1"><g class="cls-1"><path class="cls-2" d="M178.78,112a24.77,24.77,0,0,1-4.75-.37,8.33,8.33,0,0,1-3-1.08,3.73,3.73,0,0,1-1.52-1.79,7.16,7.16,0,0,1-.41-2.54c0-.3,0-.71.05-1.25s.08-1.3.14-2.28l.27-3.8c.12-1.55.27-3.5.47-5.85q.34-4.36.54-6.91c.13-1.7.22-3,.29-4s.11-1.58.12-2,0-.69,0-1c0-.53,0-1,0-1.28a4,4,0,0,1,.1-.76.69.69,0,0,1,.24-.39.93.93,0,0,1,.52-.12q2.9-.2,4.92-.3c1.36-.06,2.54-.09,3.56-.09a28.85,28.85,0,0,1,6.39.61,12.93,12.93,0,0,1,4.34,1.74,7,7,0,0,1,2.45,2.79,8.79,8.79,0,0,1,.78,3.77,12.82,12.82,0,0,1-.24,2.43,8.77,8.77,0,0,1-.84,2.38,6.55,6.55,0,0,1-1.59,2,6.22,6.22,0,0,1-2.52,1.25,6.69,6.69,0,0,1,4,2.92,9.48,9.48,0,0,1,1.17,4.82,12.11,12.11,0,0,1-.73,4.24,8.2,8.2,0,0,1-2.55,3.48,13.47,13.47,0,0,1-4.8,2.38A27.35,27.35,0,0,1,178.78,112Zm2.79-15.19c-.36,0-.8,0-1.32.07s-1.06.12-1.62.22l-.54,8a11,11,0,0,0,3.19.54,5.84,5.84,0,0,0,2.45-.44,3.85,3.85,0,0,0,1.44-1.11,3.43,3.43,0,0,0,.69-1.47,7.4,7.4,0,0,0,.17-1.49A4.71,4.71,0,0,0,185,98,4.21,4.21,0,0,0,181.57,96.77Zm-2.06-13.48c-.06.85-.12,1.85-.17,3s-.12,2.39-.22,3.73a11.78,11.78,0,0,0,2.8.39,6.84,6.84,0,0,0,2.35-.34,3.75,3.75,0,0,0,1.39-.89,2.73,2.73,0,0,0,.69-1.17,5,5,0,0,0,.17-1.23,3.77,3.77,0,0,0-1-2.62,4.54,4.54,0,0,0-3.46-1.1,10.62,10.62,0,0,0-1.2.07Z"/><path class="cls-2" d="M203.33,111.47a8.12,8.12,0,0,1-2.48-.32,3.54,3.54,0,0,1-1.51-.91,3.17,3.17,0,0,1-.79-1.44,7.91,7.91,0,0,1-.22-2c0-.49,0-1.18.07-2.08s.14-2.14.27-3.72.29-3.6.47-6,.4-5.45.66-9c0-.72.11-1.14.25-1.27s.35-.15.78-.15h1.91a8.79,8.79,0,0,1,2.47.29,3.48,3.48,0,0,1,1.52.88,3.24,3.24,0,0,1,.79,1.43,7.08,7.08,0,0,1,.22,1.86c0,.49,0,1.22-.1,2.2s-.16,2.31-.27,4-.27,3.77-.46,6.27-.45,5.51-.74,9a.85.85,0,0,1-1.08,1Zm-3.48-32.73a3.72,3.72,0,0,1,1.42-3.09,6,6,0,0,1,3.82-1.13,4.49,4.49,0,0,1,3.06.86,2.9,2.9,0,0,1,1,2.28,3.85,3.85,0,0,1-1.35,3,5.75,5.75,0,0,1-3.94,1.2Q199.84,81.87,199.85,78.74Z"/><path class="cls-2" d="M223.37,112a17.39,17.39,0,0,1-4.29-.54,10.23,10.23,0,0,1-3.82-1.86,9.89,9.89,0,0,1-2.77-3.53,12.57,12.57,0,0,1-1.08-5.54,27,27,0,0,1,.2-2.94,19,19,0,0,1,.76-3.53,18.74,18.74,0,0,1,1.57-3.6,12.28,12.28,0,0,1,2.62-3.21,13,13,0,0,1,3.92-2.3A15.27,15.27,0,0,1,226,84a13.56,13.56,0,0,1,4.31.59,7.67,7.67,0,0,1,2.84,1.59,6,6,0,0,1,1.57,2.33,8.26,8.26,0,0,1,.49,2.84,7.48,7.48,0,0,1-.91,3.82,8.32,8.32,0,0,1-2.35,2.62,11.58,11.58,0,0,1-3.21,1.64,26.32,26.32,0,0,1-3.48.91,24.68,24.68,0,0,1-3.16.39c-1,0-1.71.08-2.23.08a6.34,6.34,0,0,0,.27,1.83,4.74,4.74,0,0,0,.81,1.6,4.11,4.11,0,0,0,1.42,1.12,4.73,4.73,0,0,0,2.16.44,4,4,0,0,0,2-.41,4.58,4.58,0,0,0,1.15-.93c.3-.35.55-.66.76-.93a1,1,0,0,1,.86-.42,5.35,5.35,0,0,1,.86.12,3.93,3.93,0,0,1,1.25.51,4.09,4.09,0,0,1,1.12,1.08,3,3,0,0,1,.49,1.77,3.65,3.65,0,0,1-.88,2.45,6.53,6.53,0,0,1-2.28,1.66,12.15,12.15,0,0,1-3.11.93A19.26,19.26,0,0,1,223.37,112Zm.93-21.41a2.83,2.83,0,0,0-1.84.61,5.21,5.21,0,0,0-1.27,1.54,8.31,8.31,0,0,0-.79,2.06c-.18.75-.31,1.47-.41,2.16a11.24,11.24,0,0,0,4.92-1,3.06,3.06,0,0,0,1.89-2.8,2.83,2.83,0,0,0-.61-1.76A2.26,2.26,0,0,0,224.3,90.55Z"/><path class="cls-2" d="M254.83,107.16a28.13,28.13,0,0,1,.17-2.82c.11-1.16.23-2.39.34-3.68s.23-2.54.34-3.74.18-2.23.18-3a4.28,4.28,0,0,0-.62-2.28,2.56,2.56,0,0,0-2.37-1,4.6,4.6,0,0,0-2.84.84,6.07,6.07,0,0,0-1.89,3,30.8,30.8,0,0,0-1.25,6.07q-.49,3.87-.93,9.95a1.33,1.33,0,0,1-.25.78,1.23,1.23,0,0,1-.83.2h-1.76a8.07,8.07,0,0,1-2.48-.32,3.57,3.57,0,0,1-1.52-.91,3.25,3.25,0,0,1-.78-1.44,7.91,7.91,0,0,1-.22-2c0-.49,0-1.18.07-2.08s.14-2.14.27-3.72.29-3.6.47-6,.4-5.45.66-9a2.44,2.44,0,0,1,.24-1.27,1.27,1.27,0,0,1,.79-.15h1.91a7.19,7.19,0,0,1,2.42.34,4.24,4.24,0,0,1,1.55.91,3.06,3.06,0,0,1,.83,1.32,6.34,6.34,0,0,1,.29,1.54A9,9,0,0,1,251.1,85a10.69,10.69,0,0,1,4.9-1,13,13,0,0,1,3.58.44A5.53,5.53,0,0,1,262.1,86a6.63,6.63,0,0,1,1.5,2.75,15.49,15.49,0,0,1,.49,4.19c0,.52,0,1.27-.1,2.25s-.15,2-.24,3.21-.21,2.37-.32,3.63-.22,2.42-.32,3.5-.18,2-.25,2.84-.1,1.36-.1,1.62c0,.72-.08,1.15-.24,1.3a1.8,1.8,0,0,1-1.08.22h-1.57a8.87,8.87,0,0,1-2.54-.3,3.45,3.45,0,0,1-1.52-.83,2.91,2.91,0,0,1-.76-1.35A6.85,6.85,0,0,1,254.83,107.16Z"/><path class="cls-2" d="M279.38,105.25c.39-1.38.75-2.73,1.1-4.07s.68-2.77,1-4.29.71-3.18,1.12-5,.89-3.88,1.45-6.2a1.51,1.51,0,0,1,.44-.9,2.37,2.37,0,0,1,1.27-.22c.49,0,1.15,0,2,.05a11.29,11.29,0,0,1,2.4.34,6.12,6.12,0,0,1,2,.88,1.86,1.86,0,0,1,.86,1.62,10.43,10.43,0,0,1-.59,2.69c-.39,1.24-.9,2.66-1.52,4.24s-1.32,3.24-2.08,5-1.51,3.36-2.23,4.9-1.39,2.88-2,4-1.08,2-1.37,2.42a1.68,1.68,0,0,1-.69.64,3.26,3.26,0,0,1-1,.1h-4.36a3.39,3.39,0,0,1-1.69-.37,3.28,3.28,0,0,1-1.1-1,5.57,5.57,0,0,1-.74-1.34q-.29-.76-.54-1.59-1.42-4.9-2.47-8.41c-.71-2.33-1.3-4.29-1.79-5.85s-.88-2.82-1.18-3.75L267,87c-.17-.5-.28-.85-.35-1a1.42,1.42,0,0,1-.09-.37,1.28,1.28,0,0,1,.49-.73,1.63,1.63,0,0,1,1.12-.39,37.89,37.89,0,0,1,3.85.17,9.69,9.69,0,0,1,2.65.61,3.71,3.71,0,0,1,1.61,1.23,5,5,0,0,1,.81,2.06c0,.22.1.68.2,1.37s.2,1.51.32,2.47.25,2,.41,3.19.32,2.32.47,3.48.29,2.27.44,3.35S279.24,104.46,279.38,105.25Z"/><path class="cls-2" d="M306.52,112a17.39,17.39,0,0,1-4.29-.54,10.23,10.23,0,0,1-3.82-1.86,9.89,9.89,0,0,1-2.77-3.53,12.58,12.58,0,0,1-1.07-5.54,26.65,26.65,0,0,1,.19-2.94,19.79,19.79,0,0,1,.76-3.53,19.38,19.38,0,0,1,1.57-3.6,12.28,12.28,0,0,1,2.62-3.21,13,13,0,0,1,3.92-2.3,15.31,15.31,0,0,1,5.49-.88,13.52,13.52,0,0,1,4.31.59,7.59,7.59,0,0,1,2.84,1.59,6,6,0,0,1,1.57,2.33,8,8,0,0,1,.49,2.84,7.48,7.48,0,0,1-.91,3.82,8.21,8.21,0,0,1-2.35,2.62,11.58,11.58,0,0,1-3.21,1.64,25.53,25.53,0,0,1-3.48.91,24.47,24.47,0,0,1-3.16.39c-1,0-1.7.08-2.23.08a6.34,6.34,0,0,0,.27,1.83,4.74,4.74,0,0,0,.81,1.6,4.11,4.11,0,0,0,1.42,1.12,4.73,4.73,0,0,0,2.16.44,4,4,0,0,0,2-.41,4.41,4.41,0,0,0,1.15-.93c.3-.35.55-.66.76-.93a1,1,0,0,1,.86-.42,5.35,5.35,0,0,1,.86.12,3.84,3.84,0,0,1,1.25.51,4.27,4.27,0,0,1,1.13,1.08,3,3,0,0,1,.49,1.77,3.66,3.66,0,0,1-.89,2.45,6.35,6.35,0,0,1-2.28,1.66,12,12,0,0,1-3.11.93A19.26,19.26,0,0,1,306.52,112Zm.93-21.41a2.83,2.83,0,0,0-1.84.61,5.21,5.21,0,0,0-1.27,1.54,8.3,8.3,0,0,0-.78,2.06q-.27,1.13-.42,2.16a11.25,11.25,0,0,0,4.93-1,3.07,3.07,0,0,0,1.88-2.8,2.77,2.77,0,0,0-.61-1.76A2.26,2.26,0,0,0,307.45,90.55Z"/><path class="cls-2" d="M338,107.16c0-.72.06-1.66.17-2.82s.23-2.39.34-3.68.23-2.54.35-3.74.17-2.23.17-3a4.37,4.37,0,0,0-.61-2.28,2.57,2.57,0,0,0-2.38-1,4.62,4.62,0,0,0-2.84.84,6.21,6.21,0,0,0-1.89,3,31.55,31.55,0,0,0-1.25,6.07q-.5,3.87-.93,9.95a.85.85,0,0,1-1.08,1h-1.76a8.12,8.12,0,0,1-2.48-.32,3.54,3.54,0,0,1-1.51-.91,3.17,3.17,0,0,1-.79-1.44,7.91,7.91,0,0,1-.22-2c0-.49,0-1.18.07-2.08s.14-2.14.27-3.72.29-3.6.47-6,.4-5.45.66-9c0-.72.11-1.14.25-1.27s.35-.15.78-.15h1.91a7.29,7.29,0,0,1,2.43.34,4.28,4.28,0,0,1,1.54.91,3.06,3.06,0,0,1,.83,1.32,6.36,6.36,0,0,1,.3,1.54,8.89,8.89,0,0,1,3.48-3.6,10.66,10.66,0,0,1,4.9-1,13,13,0,0,1,3.57.44A5.56,5.56,0,0,1,345.26,86a6.73,6.73,0,0,1,1.49,2.75,15.1,15.1,0,0,1,.49,4.19c0,.52,0,1.27-.1,2.25s-.14,2-.24,3.21-.21,2.37-.32,3.63-.22,2.42-.32,3.5-.18,2-.24,2.84-.1,1.36-.1,1.62c0,.72-.08,1.15-.25,1.3a1.8,1.8,0,0,1-1.08.22H343a8.9,8.9,0,0,1-2.55-.3,3.45,3.45,0,0,1-1.52-.83,3,3,0,0,1-.76-1.35A6.85,6.85,0,0,1,338,107.16Z"/><path class="cls-2" d="M356.65,111.47a8.07,8.07,0,0,1-2.48-.32,3.64,3.64,0,0,1-1.52-.91,3.25,3.25,0,0,1-.78-1.44,7.91,7.91,0,0,1-.22-2c0-.49,0-1.18.07-2.08s.14-2.14.27-3.72.29-3.6.47-6,.4-5.45.66-9a2.44,2.44,0,0,1,.24-1.27,1.27,1.27,0,0,1,.79-.15h1.91a8.79,8.79,0,0,1,2.47.29,3.48,3.48,0,0,1,1.52.88,3.24,3.24,0,0,1,.79,1.43,7.53,7.53,0,0,1,.22,1.86c0,.49,0,1.22-.1,2.2s-.16,2.31-.27,4-.27,3.77-.47,6.27-.44,5.51-.73,9a.85.85,0,0,1-1.08,1Zm-3.48-32.73a3.72,3.72,0,0,1,1.42-3.09,6,6,0,0,1,3.82-1.13,4.49,4.49,0,0,1,3.06.86,2.9,2.9,0,0,1,1,2.28,3.85,3.85,0,0,1-1.35,3,5.75,5.75,0,0,1-3.94,1.2Q353.17,81.87,353.17,78.74Z"/><path class="cls-2" d="M374.34,112a9.79,9.79,0,0,1-3.65-.69,7.84,7.84,0,0,1-3-2.15,10.76,10.76,0,0,1-2.06-3.73,17,17,0,0,1-.76-5.44,28.79,28.79,0,0,1,.2-3.16,23.22,23.22,0,0,1,.68-3.5,17.66,17.66,0,0,1,1.37-3.43,12,12,0,0,1,2.23-3,10.55,10.55,0,0,1,3.24-2.08A11.54,11.54,0,0,1,377,84a7.82,7.82,0,0,1,3.95.86,4,4,0,0,1,1.88,3c.07-1.27.13-2.38.2-3.33s.12-1.83.17-2.65.11-1.63.17-2.45.13-1.74.2-2.79a2.52,2.52,0,0,1,.24-1.28.53.53,0,0,1,.25-.12l.54,0h1.91a7.5,7.5,0,0,1,2.45.34,4.22,4.22,0,0,1,1.57.93,3.28,3.28,0,0,1,.83,1.35,5.28,5.28,0,0,1,.24,1.59c-.13,1.64-.24,3.13-.34,4.49s-.21,2.9-.34,4.63-.26,3.52-.39,5.36-.27,3.68-.4,5.49-.26,3.48-.39,5-.24,2.82-.32,3.92-.14,1.82-.17,2.18a1.87,1.87,0,0,1-.24.78c-.1.13-.38.2-.84.2h-1.76a10.66,10.66,0,0,1-1.93-.17,4.5,4.5,0,0,1-1.57-.59,2.81,2.81,0,0,1-1-1.13,3.91,3.91,0,0,1-.37-1.84,7.31,7.31,0,0,1-2.67,3A8,8,0,0,1,374.34,112Zm4.26-21.41a3.94,3.94,0,0,0-3.7,2.18,12.13,12.13,0,0,0-1.2,5.85,18.74,18.74,0,0,0,.17,2.5,8.14,8.14,0,0,0,.61,2.21,4.13,4.13,0,0,0,1.2,1.56,3.05,3.05,0,0,0,1.94.59,4.18,4.18,0,0,0,3.53-2.06c.94-1.37,1.42-3.53,1.42-6.46a18.43,18.43,0,0,0-.15-2.38,6.11,6.11,0,0,0-.59-2,3.69,3.69,0,0,0-1.22-1.43A3.53,3.53,0,0,0,378.6,90.55Z"/><path class="cls-2" d="M406.14,112a14.2,14.2,0,0,1-5.61-1,8.9,8.9,0,0,1-3.56-2.62,10,10,0,0,1-1.86-3.89,20.29,20.29,0,0,1-.54-4.78,23.66,23.66,0,0,1,.71-5.76,13.41,13.41,0,0,1,2.43-5,12.25,12.25,0,0,1,4.53-3.55,16.23,16.23,0,0,1,7-1.35q6.18,0,8.85,3t2.67,8.45a29.8,29.8,0,0,1-.22,3.36,18.18,18.18,0,0,1-.84,3.65,16.89,16.89,0,0,1-1.66,3.53,12,12,0,0,1-2.67,3,12.53,12.53,0,0,1-3.9,2.1A16.32,16.32,0,0,1,406.14,112Zm2.3-21.41a4.33,4.33,0,0,0-3,1,6.12,6.12,0,0,0-1.67,2.3,10.49,10.49,0,0,0-.74,2.85,23.56,23.56,0,0,0-.17,2.52,8.65,8.65,0,0,0,1,4.75,3.33,3.33,0,0,0,2.94,1.52,3.88,3.88,0,0,0,2.82-1.08,7.46,7.46,0,0,0,1.71-2.59,13.27,13.27,0,0,0,.84-3.19,23.26,23.26,0,0,0,.22-2.79,7,7,0,0,0-.91-3.85A3.42,3.42,0,0,0,408.44,90.55Z"/><path class="cls-2" d="M433.53,105.44a7.77,7.77,0,0,1,4-6.91q4-2.49,11.71-2.69c0-.36.05-.66.07-.91s0-.55,0-.91a4.7,4.7,0,0,0-.58-2.5,2.71,2.71,0,0,0-2.45-.93,4,4,0,0,0-1.67.3,2.59,2.59,0,0,0-1,.81,4.44,4.44,0,0,0-.64,1.25c-.16.49-.31,1-.44,1.61a.69.69,0,0,1-.44.57,3.55,3.55,0,0,1-1.08.12q-5,0-5-3.77a6.09,6.09,0,0,1,.71-2.89,6.67,6.67,0,0,1,2.1-2.38,11.07,11.07,0,0,1,3.51-1.59,18,18,0,0,1,4.9-.59q5.43,0,7.89,2.25a8.25,8.25,0,0,1,2.45,6.37c0,.36,0,1-.13,1.94s-.18,1.91-.29,2.94-.21,2-.29,2.91-.13,1.56-.13,1.91a2.63,2.63,0,0,0,.45,1.74,2.21,2.21,0,0,0,1,.71,8.21,8.21,0,0,0,1,.3.47.47,0,0,1,.44.49,8.48,8.48,0,0,1-.29,2.2,6.06,6.06,0,0,1-.95,2.06,5,5,0,0,1-1.82,1.52,6.19,6.19,0,0,1-2.82.59,4.91,4.91,0,0,1-3.52-1.13,5.69,5.69,0,0,1-1.57-3.14,11.33,11.33,0,0,1-3.06,3,8.65,8.65,0,0,1-4.93,1.28,11.24,11.24,0,0,1-2.77-.34,6,6,0,0,1-2.25-1.13,5.47,5.47,0,0,1-1.52-2A7.19,7.19,0,0,1,433.53,105.44Zm15.24-5.59a15.81,15.81,0,0,0-2.5.2,9.2,9.2,0,0,0-2.18.61,4.2,4.2,0,0,0-1.55,1.11,2.46,2.46,0,0,0-.59,1.66,1.69,1.69,0,0,0,.72,1.57,2.87,2.87,0,0,0,1.54.44,3.86,3.86,0,0,0,3-1.4,6.77,6.77,0,0,0,1.06-1.73A7.83,7.83,0,0,0,448.77,99.85Z"/></g></g></g><g id="Grupo_23" data-name="Grupo 23"><path id="Trazado_3" data-name="Trazado 3" class="cls-3" d="M329.93,187.22a17.5,17.5,0,1,1-35,1.09c-.3-9.67,9.77-25.75,16.37-36.79,6.82,10.4,18.32,26,18.62,35.69"/><path id="Trazado_8" data-name="Trazado 8" class="cls-4" d="M314,198.77a5.83,5.83,0,0,0-1.5-3.42,9.84,9.84,0,0,0-3-2.22,18.06,18.06,0,0,0-3.57-1.34,13.51,13.51,0,0,0-1.88-.35,5.57,5.57,0,0,0-1.91,0,7.48,7.48,0,0,1,3.9-.11,13.44,13.44,0,0,1,3.75,1.24,9,9,0,0,1,3.11,2.47,6.17,6.17,0,0,1,.95,1.77,4.94,4.94,0,0,1,.2,1.95"/><path id="Trazado_6" data-name="Trazado 6" class="cls-4" d="M314.31,191.69a5.93,5.93,0,0,1,1.67-2.26,10.89,10.89,0,0,1,2.36-1.54A10.58,10.58,0,0,1,321,187a4.75,4.75,0,0,1,2.79.18,6.39,6.39,0,0,0-2.68.28,17.37,17.37,0,0,0-4.86,2.36,8.53,8.53,0,0,0-2,1.88"/><path id="Trazado_7" data-name="Trazado 7" class="cls-4" d="M313.83,180.8a10.89,10.89,0,0,0-2.06-2.38,10.08,10.08,0,0,0-2.64-1.62,15.51,15.51,0,0,0-3-.9,15.92,15.92,0,0,0-3.15-.29,9.17,9.17,0,0,1,3.22-.18,11.09,11.09,0,0,1,3.15.82,8.33,8.33,0,0,1,2.72,1.82,7.41,7.41,0,0,1,1.74,2.73"/><path id="Trazado_5" data-name="Trazado 5" class="cls-4" d="M313.55,175.73a7.37,7.37,0,0,1,1.1-2.4,10.09,10.09,0,0,1,1.85-1.9,11.41,11.41,0,0,1,4.73-2.23c-.78.4-1.53.82-2.26,1.27a25.09,25.09,0,0,0-2.09,1.45,15.11,15.11,0,0,0-1.85,1.73,13.4,13.4,0,0,0-1.47,2.1"/><path id="Trazado_66" data-name="Trazado 66" class="cls-4" d="M314.75,197.55q0-8.4-.47-16.77-.27-4.18-.74-8.36c-.17-1.39-.36-2.77-.61-4.16a22.76,22.76,0,0,0-1.09-4,22.1,22.1,0,0,1,.81,4.09c.18,1.38.31,2.77.4,4.15.19,2.79.28,5.57.32,8.36q.17,8.35-.07,16.71t-.65,16.7q-.39,7.56-1,15.13l1.86-.31C314.3,218.57,314.75,208.06,314.75,197.55Z"/><g id="Grupo_22" data-name="Grupo 22"><ellipse id="Elipse_6" data-name="Elipse 6" class="cls-2" cx="311.68" cy="289.03" rx="39.19" ry="10.36"/><path id="Trazado_67" data-name="Trazado 67" class="cls-5" d="M317.49,210.61c-19.71-2.59-38,12.62-40.75,33.94a33.36,33.36,0,0,0-.16,10.46c1.1,14.93,5.65,37.14,9.22,38.15,2.54.73,7.73-7.41,10.56-12.24a38.58,38.58,0,0,0,11,3.11,39.16,39.16,0,0,0,19.06-2.1c2.48,5,6.16,11.51,8.43,11.08,3.68-.7,10.72-23,13.08-37.78l-.08.07c.08-.48.19-.93.25-1.41h0C350.92,232.57,337.21,213.18,317.49,210.61Z"/></g><g id="Grupo_1" data-name="Grupo 1"><path id="Trazado_11" data-name="Trazado 11" class="cls-2" d="M300.5,241.36a2.93,2.93,0,1,1-2.93-2.93h0a2.93,2.93,0,0,1,2.93,2.93h0"/><path id="Trazado_12" data-name="Trazado 12" class="cls-2" d="M334.64,239.37a3,3,0,1,1-3-3h0a3,3,0,0,1,3,3h0"/><path id="Trazado_13" data-name="Trazado 13" class="cls-2" d="M310,254.44a6.84,6.84,0,0,0,9.63.85,7.49,7.49,0,0,0,.75-.74c.45-.53-.32-1.3-.77-.76a5.78,5.78,0,0,1-8.15.63h0a6.38,6.38,0,0,1-.53-.51c-.41-.56-1.35,0-.93.55"/><path id="Trazado_14" data-name="Trazado 14" class="cls-2" d="M294.17,232.7a4.34,4.34,0,0,0-3.29,1.05,4.71,4.71,0,0,0-1.91,3.3.23.23,0,0,0,.23.22.22.22,0,0,0,.23-.22,4.26,4.26,0,0,1,1.74-3,3.85,3.85,0,0,1,2.89-.95c.29,0,.4-.38.12-.44"/><path id="Trazado_15" data-name="Trazado 15" class="cls-2" d="M334.22,231.57a3.89,3.89,0,0,1,2.9,1,4.25,4.25,0,0,1,1.74,2.94c0,.3.47.3.45,0a4.67,4.67,0,0,0-1.91-3.3,4.32,4.32,0,0,0-3.29-1c-.28,0-.16.49.12.44"/></g><path id="Trazado_68" data-name="Trazado 68" class="cls-2" d="M557.18,290c0,1.06-.63,1.75-1.88,2.05a23.5,23.5,0,0,1-5.29.45,50.8,50.8,0,0,1-7.4-.45,20.64,20.64,0,0,1-5.18-1.37,11.74,11.74,0,0,1-3.47-2.22,9.65,9.65,0,0,1-2.16-3.12l-9.55-19.91q-4,6.15-7.85,12.34T506,290.91a11,11,0,0,1-1.65,1.48,4.77,4.77,0,0,1-3,1.14,5.76,5.76,0,0,1-3.58-1.77,22.75,22.75,0,0,1-3.69-4.21,26,26,0,0,1-2.85-5.23,13.19,13.19,0,0,1-1.14-4.83c0-1.6.84-3.51,2.5-5.75a56.38,56.38,0,0,1,6.26-6.94c2.59-2.46,5.31-4.8,8.13-7s5.67-4.29,8.25-6q-4.67-8-8.76-14.73t-7.05-11.88q-3-5.13-4.67-8.19a14.81,14.81,0,0,1-1.7-3.65c0-.37.65-.75,1.94-1.13a20.85,20.85,0,0,1,5.57-.57,46.12,46.12,0,0,1,7.79.57,18,18,0,0,1,5.8,1.93,14.37,14.37,0,0,1,4.27,3.64,25.71,25.71,0,0,1,3.3,5.58l6.26,14.22q2.38-3.08,4.21-5.8c1.21-1.83,2.46-3.72,3.75-5.69s2.69-4.1,4.21-6.37,3.3-4.9,5.35-7.85a3.36,3.36,0,0,1,2.84-1.37,6.32,6.32,0,0,1,4.15,1.88,22.43,22.43,0,0,1,3.81,4.44,28.85,28.85,0,0,1,2.79,5.23,12.16,12.16,0,0,1,1.08,4.27q0,2.16-2.67,5.46a64.83,64.83,0,0,1-6.54,6.82q-3.87,3.54-8.2,6.89T535.1,251q1.36,2.73,3.53,6.32t4.61,7.51q2.44,3.92,4.94,7.85c1.67,2.61,3.17,5.06,4.5,7.33s2.4,4.3,3.24,6.09A10.8,10.8,0,0,1,557.18,290Z"/><path id="Trazado_69" data-name="Trazado 69" class="cls-2" d="M455.47,210.37a38.72,38.72,0,0,1,14.22,2.33,23.63,23.63,0,0,1,9.67,6.83,27.91,27.91,0,0,1,5.46,10.92,56.68,56.68,0,0,1,1.7,14.61,86.13,86.13,0,0,1-.62,9.9,61.37,61.37,0,0,1-2.28,10.75,51.62,51.62,0,0,1-4.49,10.41,33.73,33.73,0,0,1-7.34,8.88A35.53,35.53,0,0,1,461,291.2a42.73,42.73,0,0,1-14.79,2.33q-9.45,0-15.64-2.85a25.54,25.54,0,0,1-9.9-7.68,29.4,29.4,0,0,1-5.23-11.43,62,62,0,0,1-1.54-14.11A73.41,73.41,0,0,1,416,240.12,41.68,41.68,0,0,1,422.87,225a35.33,35.33,0,0,1,12.8-10.63Q443.64,210.36,455.47,210.37ZM453.08,228a15.54,15.54,0,0,0-6.88,1.42,14.78,14.78,0,0,0-4.89,3.81,20,20,0,0,0-3.19,5.35,39,39,0,0,0-1.88,6.09,45.22,45.22,0,0,0-.91,6c-.15,1.93-.22,3.65-.22,5.17q0,10.36,3.46,15.13a12.53,12.53,0,0,0,17.59,2.1c.27-.22.54-.44.79-.68a24.06,24.06,0,0,0,5.18-8.07,41.42,41.42,0,0,0,2.56-9.79,66.6,66.6,0,0,0,.68-8.59q0-8.29-2.85-13.13T453.08,228Z"/><path id="Trazado_70" data-name="Trazado 70" class="cls-2" d="M392.33,227.54,388,290.68c-.08,1.14-.5,1.71-1.25,1.71H380.5q-6.37,0-9.1-2.5t-2.73-7.17c0-1.14.05-2.84.17-5.12s.28-4.94.51-8,.47-6.41.74-10,.55-7.24.85-10.92.59-7.34.86-11,.51-7,.74-10.12h-18.2c-.84,0-1.25-.53-1.25-1.59l.34-6.37a14.09,14.09,0,0,1,.51-2.9,7,7,0,0,1,1.31-2.56,6.61,6.61,0,0,1,2.33-1.83,8.12,8.12,0,0,1,3.47-.68H411.9a2.47,2.47,0,0,1,1.25.34,1.34,1.34,0,0,1,.57,1.26l-.45,6.71a9.88,9.88,0,0,1-1.88,5.52q-1.65,2.1-6.77,2.1Z"/><path id="Trazado_71" data-name="Trazado 71" class="cls-2" d="M217.48,292.39c-4.32,0-7.38-.85-9.16-2.56s-2.67-4.23-2.67-7.56c0-.92.06-2.45.17-4.61s.28-4.72.51-7.68.47-6.2.74-9.73.55-7.11.85-10.75q.92-11.49,1.31-18.66t.63-11.26a51.42,51.42,0,0,1,.68-6.54c.23-.95.72-1.42,1.48-1.42q3.53,0,7.23-.17t7.11-.4c2.27-.15,4.41-.29,6.42-.4s3.81-.18,5.4-.17a38.2,38.2,0,0,1,12.51,1.82,21.6,21.6,0,0,1,8.48,5.12,20.1,20.1,0,0,1,4.78,8,33.79,33.79,0,0,1,1.54,10.47A34.62,34.62,0,0,1,262,251.66a23.23,23.23,0,0,1-11.27,10.58l9.56,13.65q2.61,3.87,4,6A6.89,6.89,0,0,1,265.6,285a4.54,4.54,0,0,1-1,2.22,12.35,12.35,0,0,1-2.84,2.84,18.41,18.41,0,0,1-4.56,2.45,16.4,16.4,0,0,1-6,1,9.15,9.15,0,0,1-6.32-2.38,22.92,22.92,0,0,1-4.78-6.32,48.83,48.83,0,0,1-3.64-9q-1.53-5.11-2.9-10.7a43.27,43.27,0,0,1-6.71-.8c-.23,3.34-.45,6.53-.68,9.56s-.42,5.74-.57,8.13-.31,4.36-.46,5.92-.22,2.48-.22,2.79a2.52,2.52,0,0,1-.46,1.3,1.73,1.73,0,0,1-1.36.4Zm18.43-64.85a29.41,29.41,0,0,0-3.07.18c-1.14.11-2.35.24-3.64.4q-.22,4-.51,9.5T228,249.39a31.22,31.22,0,0,0,6.94.91,10.85,10.85,0,0,0,5.74-1.36,10.61,10.61,0,0,0,3.47-3.36,11.93,11.93,0,0,0,1.65-4.26,23.63,23.63,0,0,0,.4-4.1q0-4.66-2.27-7.17t-8-2.5Z"/><path id="Trazado_72" data-name="Trazado 72" class="cls-2" d="M160.49,292.39c-4.25,0-7.29-.83-9.1-2.5s-2.73-4.06-2.74-7.17q0-2.27.35-7.79t.9-12.57q.57-7,1.14-14.9t1.14-14.79q.57-6.93.91-12.17t.34-7.17c0-1.13.61-1.7,1.82-1.7H195.3a2.4,2.4,0,0,1,1.25.34,1.37,1.37,0,0,1,.57,1.26l-.46,6.71a9.77,9.77,0,0,1-1.88,5.51q-1.65,2.1-6.76,2.1h-15.7l-1.13,16h16.15a2.31,2.31,0,0,1,1.25.34,1.36,1.36,0,0,1,.57,1.25l-.46,6.71a9.81,9.81,0,0,1-1.88,5.52c-1.09,1.4-3.35,2.1-6.76,2.1h-9.9l-1.25,17h25a2.14,2.14,0,0,1,1.25.4,1.34,1.34,0,0,1,.57,1.2l-.45,6.71a9.85,9.85,0,0,1-1.88,5.51c-1.1,1.41-3.35,2.11-6.77,2.11Z"/><path id="Trazado_73" data-name="Trazado 73" class="cls-2" d="M81.88,292.39a1.09,1.09,0,0,1-1.25-.94.81.81,0,0,1,0-.31L81,285c.07-.68.19-1.53.34-2.55a5.31,5.31,0,0,1,1-2.56q1.94-3.54,4.67-7.62t6.6-10q3.87-5.91,9-14.27t12-20.42H88.7c-.6,0-1-.12-1.08-.34a3.18,3.18,0,0,1-.17-1.26l.35-6.37a22,22,0,0,1,.4-2.9,6.41,6.41,0,0,1,1.13-2.56,6,6,0,0,1,2.45-1.82,11,11,0,0,1,4.21-.68h43.46a2.5,2.5,0,0,1,1.25.34,1.38,1.38,0,0,1,.57,1.26l-.46,6.14a11.35,11.35,0,0,1-1.36,4.89l-3.3,5.4-7.51,12.23-10.18,16.5q-5.62,9.09-11.32,18.08H136a2.38,2.38,0,0,1,1.25.35,1.32,1.32,0,0,1,.57,1.25l-.45,6.71a9.81,9.81,0,0,1-1.88,5.52c-1.1,1.4-3.35,2.1-6.77,2.1Z"/></g></svg>