<svg id="Capa_1" data-name="Capa 1" xmlns="http://www.w3.org/2000/svg" viewBox="0 0 1241.83 174.25"><defs><style>.cls-1{fill:#e0d8d0;}.cls-2{fill:none;stroke:#e0d8d0;stroke-miterlimit:10;stroke-width:0.62px;}</style></defs><title>bombillas</title><path class="cls-1" d="M1019.61,97.14l-19.22,0a1.62,1.62,0,0,1,0-3.2l19.22,0a1.61,1.61,0,0,1,0,3.19Z"/><path class="cls-1" d="M1019.62,92.68l-19.22,0a1.62,1.62,0,0,1,0-3.2h2.06l2.07-4.24s1-1.36,1.52-1.51,6.43-.8,8.26,0a3,3,0,0,1,1.59,1.63c.54,1,1.67,3.17,2.18,4.13h1.54a1.52,1.52,0,0,1,1.38,1.61A1.49,1.49,0,0,1,1019.62,92.68Z"/><path class="cls-1" d="M1019.6,101.61l-19.22,0a1.62,1.62,0,0,1,0-3.2l19.22,0a1.62,1.62,0,0,1,0,3.2Z"/><path class="cls-2" d="M1016.55,129.72a1,1,0,0,1,.11.9c-.12.2-.25.3-.37.3-.29,0-.68-.4-.87-.77a3.09,3.09,0,0,1-.14-1.83A3.9,3.9,0,0,1,1016.55,129.72Z"/><path class="cls-2" d="M1008.29,130.49a1.4,1.4,0,0,1,0,1.06.17.17,0,0,1-.14.07,1.3,1.3,0,0,1-.29-.08,1.72,1.72,0,0,1-.85-.89,2.6,2.6,0,0,1-.12-2.1c.05.06.09.12.14.17A8.88,8.88,0,0,1,1008.29,130.49Z"/><path class="cls-2" d="M1002.17,121.89a126.12,126.12,0,0,0,6.9-19.21H1012a128.2,128.2,0,0,0,6.37,18.18,8.38,8.38,0,0,0-4.24,4.76,8.32,8.32,0,0,0-4.1-.6,7.79,7.79,0,0,0-3,.86A15.87,15.87,0,0,0,1002.17,121.89Z"/><path class="cls-2" d="M997.81,125.41h-.13c-.24,0-.52-.1-.57-.31a1.24,1.24,0,0,1,.29-1,2.83,2.83,0,0,1,2.05-1.06.43.43,0,0,1,.16,0c-.15.32-.31.63-.47.95C998.82,124.63,998.41,125.32,997.81,125.41Z"/><path class="cls-2" d="M1022.59,124.86h0c-.07,0-.26-.08-.71-.82l0-.06c-.28-.56-.56-1.13-.85-1.74a2.37,2.37,0,0,1,1.49.64,1.53,1.53,0,0,1,.37,1.19C1022.81,124.62,1022.67,124.82,1022.59,124.86Z"/><path class="cls-2" d="M1009.91,159a26.11,26.11,0,0,1-10.78-49.77v-5.06a1.54,1.54,0,0,1,1.53-1.54h6.5a122.61,122.61,0,0,1-6.74,18.62,4.26,4.26,0,0,0-3.82,1,3.85,3.85,0,0,0-1.36,2.9,2.1,2.1,0,0,0,1,1.62,2.64,2.64,0,0,0,1.36.42c1.43,0,2.57-1.31,3.11-2.42.21-.41.42-.83.62-1.25a13.06,13.06,0,0,1,4.25,3.48,3.66,3.66,0,0,0-.67,1.72,5.33,5.33,0,0,0,1.24,3.73,2.18,2.18,0,0,0,3.13.49,2.28,2.28,0,0,0,1-1.57c.19-1.42-1-2.93-1.93-4l-.12-.15a4.13,4.13,0,0,1,.82-.25,7.07,7.07,0,0,1,4,.12l.56.23a9.53,9.53,0,0,0-.17,1.14,3.91,3.91,0,0,0,1.4,3.72,2.42,2.42,0,0,0,1.52.55,1.82,1.82,0,0,0,1.35-.55,2.7,2.7,0,0,0,.8-2.14,5,5,0,0,0-2.18-3.21c-.18-.13-.36-.26-.55-.38.47-1.31,1.45-3.26,3.31-4,.38.81.77,1.61,1.15,2.38a.78.78,0,0,0,.1.15c.34.53,1.22,1.69,2.31,1.69a1.65,1.65,0,0,0,1.11-.45,3.37,3.37,0,0,0,.67-3.63,3.74,3.74,0,0,0-3.73-2.29,5.44,5.44,0,0,0-.57,0,124.08,124.08,0,0,1-6.24-17.69h5.41a1.53,1.53,0,0,1,1.53,1.54v5.07A26.1,26.1,0,0,1,1009.91,159Z"/><rect class="cls-1" x="1009.64" y="15.04" width="1.24" height="68.67"/><path class="cls-1" d="M851.53,71l-19.22,0a1.5,1.5,0,0,1-1.39-1.59,1.52,1.52,0,0,1,1.39-1.6l19.22,0a1.61,1.61,0,0,1,0,3.19Z"/><path class="cls-1" d="M851.54,66.54l-19.23,0a1.62,1.62,0,0,1,0-3.2h2l2.08-4.24s1-1.36,1.52-1.51,6.42-.81,8.26,0a3,3,0,0,1,1.59,1.63c.54,1,1.67,3.17,2.18,4.13h1.54a1.62,1.62,0,0,1,0,3.2Z"/><path class="cls-1" d="M851.52,75.47l-19.22,0a1.62,1.62,0,0,1,0-3.2l19.23,0a1.62,1.62,0,0,1,0,3.2Z"/><path class="cls-2" d="M848.47,103.58a1,1,0,0,1,.11.9c-.13.2-.25.3-.38.3-.28,0-.67-.4-.86-.77a2.94,2.94,0,0,1-.14-1.83A4,4,0,0,1,848.47,103.58Z"/><path class="cls-2" d="M840.21,104.35a1.37,1.37,0,0,1,0,1.05s0,.07-.13.07a.75.75,0,0,1-.29-.07,1.69,1.69,0,0,1-.85-.89,2.65,2.65,0,0,1-.13-2.1l.15.17A8.6,8.6,0,0,1,840.21,104.35Z"/><path class="cls-2" d="M834.09,95.75A125.09,125.09,0,0,0,841,76.54h2.92a127.43,127.43,0,0,0,6.36,18.18A8.4,8.4,0,0,0,846,99.48a8.35,8.35,0,0,0-4.11-.6,7.62,7.62,0,0,0-3,.86A16,16,0,0,0,834.09,95.75Z"/><path class="cls-2" d="M829.73,99.27h-.13c-.24,0-.52-.1-.58-.31a1.28,1.28,0,0,1,.3-1,2.87,2.87,0,0,1,2-1.07h.17c-.15.32-.31.64-.47,1C830.73,98.49,830.33,99.18,829.73,99.27Z"/><path class="cls-2" d="M854.51,98.72h0c-.06,0-.26-.08-.71-.82l0-.06c-.28-.56-.56-1.13-.85-1.74a2.34,2.34,0,0,1,1.48.64,1.48,1.48,0,0,1,.37,1.18C854.73,98.48,854.59,98.68,854.51,98.72Z"/><path class="cls-2" d="M841.82,132.9a26.11,26.11,0,0,1-10.77-49.77V78.06a1.52,1.52,0,0,1,1.53-1.53h6.49a122.78,122.78,0,0,1-6.73,18.63,4.25,4.25,0,0,0-3.82,1,3.85,3.85,0,0,0-1.36,2.9,2.08,2.08,0,0,0,1,1.61,2.53,2.53,0,0,0,1.37.42c1.43,0,2.57-1.3,3.11-2.41l.62-1.25a13.1,13.1,0,0,1,4.24,3.47,3.92,3.92,0,0,0-.67,1.73,5.43,5.43,0,0,0,1.24,3.73,2.18,2.18,0,0,0,3.13.49,2.32,2.32,0,0,0,1-1.57c.18-1.42-1-2.93-1.93-4l-.12-.15a3.94,3.94,0,0,1,.82-.26,7.12,7.12,0,0,1,4,.13l.56.23c-.07.39-.13.77-.17,1.14a3.93,3.93,0,0,0,1.4,3.71,2.41,2.41,0,0,0,1.53.55,1.74,1.74,0,0,0,1.34-.54,2.67,2.67,0,0,0,.81-2.14,5.11,5.11,0,0,0-2.18-3.22l-.56-.37a6.53,6.53,0,0,1,3.32-4c.38.81.76,1.61,1.15,2.38l.1.15c.34.52,1.22,1.69,2.31,1.69a1.65,1.65,0,0,0,1.11-.45,3.37,3.37,0,0,0,.66-3.64,3.71,3.71,0,0,0-3.72-2.28,5.44,5.44,0,0,0-.57,0,125.29,125.29,0,0,1-6.25-17.69h5.42a1.55,1.55,0,0,1,1.53,1.55v5.06a26.11,26.11,0,0,1-10.93,49.74Z"/><rect class="cls-1" x="841.56" y="15.04" width="1.24" height="45.02"/><path class="cls-1" d="M1193.53,71l-19.22,0a1.5,1.5,0,0,1-1.39-1.59,1.52,1.52,0,0,1,1.39-1.6l19.22,0a1.61,1.61,0,0,1,0,3.19Z"/><path class="cls-1" d="M1193.54,66.54l-19.23,0a1.62,1.62,0,0,1,0-3.2h2l2.08-4.24s1-1.36,1.52-1.51,6.42-.81,8.26,0a3,3,0,0,1,1.59,1.63c.54,1,1.67,3.17,2.18,4.13h1.54a1.62,1.62,0,0,1,0,3.2Z"/><path class="cls-1" d="M1193.52,75.47l-19.22,0a1.62,1.62,0,0,1,0-3.2l19.23,0a1.62,1.62,0,0,1,0,3.2Z"/><path class="cls-2" d="M1190.47,103.58a1,1,0,0,1,.11.9c-.13.2-.25.3-.38.3-.28,0-.67-.4-.86-.77a2.94,2.94,0,0,1-.14-1.83A4,4,0,0,1,1190.47,103.58Z"/><path class="cls-2" d="M1182.21,104.35a1.37,1.37,0,0,1,0,1.05s0,.07-.13.07a.75.75,0,0,1-.29-.07,1.69,1.69,0,0,1-.85-.89,2.65,2.65,0,0,1-.13-2.1l.15.17A8.6,8.6,0,0,1,1182.21,104.35Z"/><path class="cls-2" d="M1176.09,95.75A125.09,125.09,0,0,0,1183,76.54h2.92a127.43,127.43,0,0,0,6.36,18.18,8.4,8.4,0,0,0-4.23,4.76,8.35,8.35,0,0,0-4.11-.6,7.62,7.62,0,0,0-3,.86A16,16,0,0,0,1176.09,95.75Z"/><path class="cls-2" d="M1171.73,99.27h-.13c-.24,0-.52-.1-.58-.31a1.28,1.28,0,0,1,.3-1,2.87,2.87,0,0,1,2-1.07h.17c-.15.32-.31.64-.47,1C1172.73,98.49,1172.33,99.18,1171.73,99.27Z"/><path class="cls-2" d="M1196.51,98.72h0c-.06,0-.26-.08-.71-.82l0-.06c-.28-.56-.56-1.13-.85-1.74a2.34,2.34,0,0,1,1.48.64,1.48,1.48,0,0,1,.37,1.18C1196.73,98.48,1196.59,98.68,1196.51,98.72Z"/><path class="cls-2" d="M1183.82,132.9a26.11,26.11,0,0,1-10.77-49.77V78.06a1.52,1.52,0,0,1,1.53-1.53h6.49a122.78,122.78,0,0,1-6.73,18.63,4.25,4.25,0,0,0-3.82,1,3.85,3.85,0,0,0-1.36,2.9,2.08,2.08,0,0,0,1,1.61,2.53,2.53,0,0,0,1.37.42c1.43,0,2.57-1.3,3.11-2.41l.62-1.25a13.1,13.1,0,0,1,4.24,3.47,3.92,3.92,0,0,0-.67,1.73,5.43,5.43,0,0,0,1.24,3.73,2.18,2.18,0,0,0,3.13.49,2.32,2.32,0,0,0,1-1.57c.18-1.42-1-2.93-1.93-4l-.12-.15a3.94,3.94,0,0,1,.82-.26,7.12,7.12,0,0,1,4,.13l.56.23c-.07.39-.13.77-.17,1.14a3.93,3.93,0,0,0,1.4,3.71,2.41,2.41,0,0,0,1.53.55,1.74,1.74,0,0,0,1.34-.54,2.67,2.67,0,0,0,.81-2.14,5.11,5.11,0,0,0-2.18-3.22l-.56-.37a6.53,6.53,0,0,1,3.32-4c.38.81.76,1.61,1.15,2.38a1.3,1.3,0,0,0,.1.15c.34.52,1.22,1.69,2.31,1.69a1.65,1.65,0,0,0,1.11-.45,3.37,3.37,0,0,0,.66-3.64,3.71,3.71,0,0,0-3.72-2.28l-.57,0a125.29,125.29,0,0,1-6.25-17.69h5.42a1.55,1.55,0,0,1,1.53,1.55v5.06a26.11,26.11,0,0,1-10.93,49.74Z"/><rect class="cls-1" x="1183.56" y="15.04" width="1.24" height="45.02"/><path class="cls-1" d="M220.38,96.43l19.23,0a1.62,1.62,0,0,0,0-3.2l-19.22,0a1.62,1.62,0,0,0,0,3.2Z"/><path class="cls-1" d="M220.38,92l19.22,0a1.52,1.52,0,0,0,1.38-1.6,1.5,1.5,0,0,0-1.39-1.6h-2.05l-2.08-4.24s-1-1.36-1.51-1.51-6.43-.8-8.26,0a3,3,0,0,0-1.59,1.63c-.54,1-1.67,3.17-2.18,4.13h-1.55a1.61,1.61,0,0,0,0,3.19Z"/><path class="cls-1" d="M220.39,100.89l19.22,0a1.62,1.62,0,0,0,0-3.2l-19.22,0a1.62,1.62,0,0,0,0,3.2Z"/><path class="cls-2" d="M223.44,129c-.19.39-.23.7-.1.9s.24.3.37.3c.28,0,.68-.4.86-.77a3,3,0,0,0,.15-1.83A3.94,3.94,0,0,0,223.44,129Z"/><path class="cls-2" d="M231.7,129.77a1.44,1.44,0,0,0,0,1.06s.06.06.13.07a1.21,1.21,0,0,0,.3-.08,1.67,1.67,0,0,0,.84-.89,2.64,2.64,0,0,0,.13-2.1l-.15.18A9,9,0,0,0,231.7,129.77Z"/><path class="cls-2" d="M237.82,121.17A126.15,126.15,0,0,1,230.93,102H228a127,127,0,0,1-6.36,18.18,8.45,8.45,0,0,1,4.24,4.76,8.31,8.31,0,0,1,4.1-.6,7.74,7.74,0,0,1,3,.86A16,16,0,0,1,237.82,121.17Z"/><path class="cls-2" d="M242.19,124.69h.12c.24,0,.53-.1.58-.31a1.27,1.27,0,0,0-.29-1,2.86,2.86,0,0,0-2-1.06h-.17c.15.32.31.63.48.95C241.18,123.91,241.59,124.6,242.19,124.69Z"/><path class="cls-2" d="M217.4,124.14h0c.06,0,.26-.09.71-.83l0-.06c.28-.55.56-1.13.85-1.74a2.34,2.34,0,0,0-1.48.64,1.53,1.53,0,0,0-.37,1.19C217.19,123.9,217.33,124.1,217.4,124.14Z"/><path class="cls-2" d="M230.09,158.32a26.11,26.11,0,0,0,10.77-49.77v-5.06a1.53,1.53,0,0,0-1.53-1.54h-6.49a122.24,122.24,0,0,0,6.73,18.62,4.25,4.25,0,0,1,3.82,1,3.85,3.85,0,0,1,1.36,2.9,2.06,2.06,0,0,1-1,1.62,2.71,2.71,0,0,1-1.37.42c-1.43,0-2.57-1.31-3.11-2.42-.21-.41-.41-.83-.62-1.25a13.13,13.13,0,0,0-4.24,3.48,3.88,3.88,0,0,1,.67,1.72,5.42,5.42,0,0,1-1.24,3.74,2.19,2.19,0,0,1-3.13.48,2.28,2.28,0,0,1-1-1.57c-.18-1.42,1-2.93,1.93-4a1.58,1.58,0,0,0,.12-.15,3.93,3.93,0,0,0-.82-.25,7,7,0,0,0-4,.12l-.56.23c.07.39.13.77.17,1.14a3.93,3.93,0,0,1-1.4,3.72,2.47,2.47,0,0,1-1.53.55,1.8,1.8,0,0,1-1.34-.55,2.66,2.66,0,0,1-.81-2.14,5.06,5.06,0,0,1,2.19-3.21c.17-.13.36-.26.55-.38a6.53,6.53,0,0,0-3.32-4c-.38.81-.76,1.61-1.15,2.38a1.4,1.4,0,0,1-.1.16c-.33.52-1.22,1.68-2.3,1.68a1.63,1.63,0,0,1-1.11-.45,3.34,3.34,0,0,1-.67-3.63,3.72,3.72,0,0,1,3.72-2.29,5.44,5.44,0,0,1,.57,0A124,124,0,0,0,226.11,102h-5.42a1.53,1.53,0,0,0-1.53,1.54v5.07a26.1,26.1,0,0,0,10.92,49.73Z"/><rect class="cls-1" x="229.12" y="14.32" width="1.24" height="68.67"/><path class="cls-1" d="M388.47,70.28l19.22,0a1.62,1.62,0,0,0,0-3.2l-19.22,0a1.61,1.61,0,0,0,0,3.19Z"/><path class="cls-1" d="M388.46,65.82l19.22,0a1.61,1.61,0,0,0,0-3.19h-2.06l-2.07-4.24s-1-1.36-1.52-1.51-6.43-.8-8.26,0a3,3,0,0,0-1.59,1.63c-.54,1-1.67,3.17-2.18,4.13h-1.54a1.62,1.62,0,0,0,0,3.2Z"/><path class="cls-1" d="M388.47,74.75l19.22,0a1.62,1.62,0,0,0,0-3.2l-19.22,0a1.62,1.62,0,0,0,0,3.2Z"/><path class="cls-2" d="M391.53,102.86a1,1,0,0,0-.11.9c.12.2.25.3.37.3.29,0,.68-.4.87-.77a3.09,3.09,0,0,0,.14-1.83A3.81,3.81,0,0,0,391.53,102.86Z"/><path class="cls-2" d="M399.78,103.63a1.42,1.42,0,0,0,0,1.05.13.13,0,0,0,.13.07.79.79,0,0,0,.3-.07,1.72,1.72,0,0,0,.85-.89,2.6,2.6,0,0,0,.12-2.1,1.15,1.15,0,0,0-.14.17A9.07,9.07,0,0,0,399.78,103.63Z"/><path class="cls-2" d="M405.91,95A126.12,126.12,0,0,1,399,75.82H396.1A128.64,128.64,0,0,1,389.73,94,8.41,8.41,0,0,1,394,98.76a8.32,8.32,0,0,1,4.1-.6,7.74,7.74,0,0,1,3,.86A16.06,16.06,0,0,1,405.91,95Z"/><path class="cls-2" d="M410.27,98.55h.13c.24,0,.52-.1.57-.31a1.24,1.24,0,0,0-.29-1,2.87,2.87,0,0,0-2.05-1.07h-.17l.48,1C409.26,97.77,409.67,98.46,410.27,98.55Z"/><path class="cls-2" d="M385.48,98h0c.07,0,.26-.08.71-.82l0-.06c.28-.56.56-1.13.85-1.74a2.34,2.34,0,0,0-1.49.64,1.52,1.52,0,0,0-.37,1.18C385.27,97.76,385.41,98,385.48,98Z"/><path class="cls-2" d="M398.17,132.18A26.11,26.11,0,0,0,409,82.41V77.34a1.53,1.53,0,0,0-1.54-1.53h-6.49a123,123,0,0,0,6.74,18.62,4.23,4.23,0,0,1,3.81,1,3.82,3.82,0,0,1,1.36,2.9,2,2,0,0,1-1,1.61,2.49,2.49,0,0,1-1.36.42c-1.44,0-2.57-1.3-3.12-2.41-.2-.42-.41-.83-.61-1.25a13,13,0,0,0-4.25,3.47,3.81,3.81,0,0,1,.67,1.73,5.33,5.33,0,0,1-1.24,3.73,2.18,2.18,0,0,1-3.13.49,2.33,2.33,0,0,1-1-1.57c-.18-1.42,1.05-2.93,1.94-4l.12-.15a4.36,4.36,0,0,0-.82-.26,7.16,7.16,0,0,0-4,.13l-.56.23a9.53,9.53,0,0,1,.17,1.14,3.91,3.91,0,0,1-1.4,3.71,2.4,2.4,0,0,1-1.53.56,1.8,1.8,0,0,1-1.34-.55,2.7,2.7,0,0,1-.8-2.14,5.07,5.07,0,0,1,2.18-3.22l.55-.37a6.54,6.54,0,0,0-3.31-4c-.38.81-.77,1.61-1.16,2.38a.6.6,0,0,1-.09.15c-.34.52-1.22,1.69-2.31,1.69a1.65,1.65,0,0,1-1.11-.45,3.37,3.37,0,0,1-.67-3.64,3.73,3.73,0,0,1,3.73-2.28,5.44,5.44,0,0,1,.57,0,124.08,124.08,0,0,0,6.24-17.69h-5.42a1.55,1.55,0,0,0-1.53,1.55v5.06a26.11,26.11,0,0,0,10.92,49.74Z"/><rect class="cls-1" x="397.2" y="14.32" width="1.24" height="45.02"/><path class="cls-1" d="M46.47,70.28l19.22,0a1.62,1.62,0,0,0,0-3.2l-19.22,0a1.61,1.61,0,0,0,0,3.19Z"/><path class="cls-1" d="M46.46,65.82l19.22,0a1.61,1.61,0,0,0,0-3.19H63.62l-2.07-4.24S60.55,57,60,56.85s-6.43-.8-8.26,0a3,3,0,0,0-1.59,1.63c-.54,1-1.67,3.17-2.18,4.13H46.46a1.62,1.62,0,0,0,0,3.2Z"/><path class="cls-1" d="M46.47,74.75l19.22,0a1.62,1.62,0,0,0,0-3.2l-19.22,0a1.62,1.62,0,0,0,0,3.2Z"/><path class="cls-2" d="M49.53,102.86a1,1,0,0,0-.11.9c.12.2.25.3.37.3.29,0,.68-.4.87-.77a3.09,3.09,0,0,0,.14-1.83A3.81,3.81,0,0,0,49.53,102.86Z"/><path class="cls-2" d="M57.78,103.63a1.42,1.42,0,0,0,0,1.05.13.13,0,0,0,.13.07.79.79,0,0,0,.3-.07,1.72,1.72,0,0,0,.85-.89,2.6,2.6,0,0,0,.12-2.1,1.15,1.15,0,0,0-.14.17A9.07,9.07,0,0,0,57.78,103.63Z"/><path class="cls-2" d="M63.91,95A126.12,126.12,0,0,1,57,75.82H54.1A128.64,128.64,0,0,1,47.73,94,8.41,8.41,0,0,1,52,98.76a8.32,8.32,0,0,1,4.1-.6,7.74,7.74,0,0,1,3,.86A16.06,16.06,0,0,1,63.91,95Z"/><path class="cls-2" d="M68.27,98.55h.13c.24,0,.52-.1.57-.31a1.24,1.24,0,0,0-.29-1,2.87,2.87,0,0,0-2.05-1.07h-.17l.48,1C67.26,97.77,67.67,98.46,68.27,98.55Z"/><path class="cls-2" d="M43.48,98h0c.07,0,.26-.08.71-.82l0-.06c.28-.56.56-1.13.85-1.74A2.34,2.34,0,0,0,43.6,96a1.52,1.52,0,0,0-.37,1.18C43.27,97.76,43.41,98,43.48,98Z"/><path class="cls-2" d="M56.17,132.18A26.11,26.11,0,0,0,67,82.41V77.34a1.53,1.53,0,0,0-1.54-1.53H58.91a123,123,0,0,0,6.74,18.62,4.23,4.23,0,0,1,3.81,1,3.82,3.82,0,0,1,1.36,2.9,2,2,0,0,1-1,1.61,2.49,2.49,0,0,1-1.36.42c-1.44,0-2.57-1.3-3.12-2.41-.2-.42-.41-.83-.61-1.25a13,13,0,0,0-4.25,3.47,3.81,3.81,0,0,1,.67,1.73,5.33,5.33,0,0,1-1.24,3.73,2.18,2.18,0,0,1-3.13.49,2.33,2.33,0,0,1-1-1.57c-.18-1.42,1-2.93,1.94-4l.12-.15a4.36,4.36,0,0,0-.82-.26,7.16,7.16,0,0,0-4,.13l-.56.23a9.53,9.53,0,0,1,.17,1.14,3.91,3.91,0,0,1-1.4,3.71,2.4,2.4,0,0,1-1.53.56,1.8,1.8,0,0,1-1.34-.55,2.7,2.7,0,0,1-.8-2.14A5.07,5.07,0,0,1,49.75,100l.55-.37a6.54,6.54,0,0,0-3.31-4c-.38.81-.77,1.61-1.16,2.38a.6.6,0,0,1-.09.15c-.34.52-1.22,1.69-2.31,1.69a1.65,1.65,0,0,1-1.11-.45,3.37,3.37,0,0,1-.67-3.64,3.73,3.73,0,0,1,3.73-2.28,5.44,5.44,0,0,1,.57,0,124.08,124.08,0,0,0,6.24-17.69H46.77a1.55,1.55,0,0,0-1.53,1.55v5.06a26.11,26.11,0,0,0,10.92,49.74Z"/><rect class="cls-1" x="55.2" y="14.32" width="1.24" height="45.02"/></svg>