<svg id="Capa_1" data-name="Capa 1" xmlns="http://www.w3.org/2000/svg" viewBox="0 0 1241.83 174.25"><defs><style>.cls-1{fill:#e0d8d0;}.cls-2{fill:#6bd05c;}</style></defs><title>bombillas 2</title><path class="cls-1" d="M936.75,42.93l-19.22,0a1.62,1.62,0,0,1,0-3.2l19.22,0a1.62,1.62,0,0,1,0,3.2Z"/><path class="cls-1" d="M936.76,38.47l-19.22,0a1.62,1.62,0,0,1,0-3.2h2.06L921.67,31s1-1.36,1.52-1.51,6.43-.8,8.26,0A3,3,0,0,1,933,31.13c.54,1,1.67,3.18,2.18,4.13h1.54a1.62,1.62,0,0,1,0,3.2Z"/><path class="cls-1" d="M936.75,47.39l-19.23,0a1.62,1.62,0,0,1,0-3.2l19.22,0a1.62,1.62,0,0,1,0,3.2Z"/><path class="cls-2" d="M962.69,62.72l-4.86,2.43a2,2,0,0,1-2.77-.75v0a2.06,2.06,0,0,1,.74-2.79l4.86-2.44a2,2,0,0,1,2.78.75,2.09,2.09,0,0,1,.25,1.18A1.84,1.84,0,0,1,962.69,62.72Z"/><path class="cls-2" d="M899.13,64.37a2,2,0,0,1-2.78.73l-4.85-2.45a1.85,1.85,0,0,1-1-1.65,2.13,2.13,0,0,1,.26-1.19,2,2,0,0,1,2.79-.72l4.85,2.45a2.08,2.08,0,0,1,.72,2.8Z"/><path class="cls-2" d="M964.25,88.52l-5.32-1.12a1.78,1.78,0,0,1-1.13-.8,1.8,1.8,0,0,1-.27-.62,2.37,2.37,0,0,1,0-1.09s0,0,0-.07a1.76,1.76,0,0,1,1.72-1.48,2.09,2.09,0,0,1,.78,0l5.29,1.19C967.87,85.15,966.8,89.06,964.25,88.52Z"/><path class="cls-2" d="M896.66,85.1a1.78,1.78,0,0,1-1.43,2.2l-5.3,1.19a2,2,0,0,1-2.49-1.44s0,0,0-.06a2.08,2.08,0,0,1,1.43-2.52l5.31-1.12A2.05,2.05,0,0,1,896.66,85.1Z"/><path class="cls-2" d="M952.68,109.92l0,0a2,2,0,0,1-2.87,0q-1.69-2.13-3.38-4.28a2.09,2.09,0,0,1,0-2.89.64.64,0,0,1,.15-.13,2,2,0,0,1,2.73.14c1.14,1.42,2.27,2.84,3.41,4.25A2.08,2.08,0,0,1,952.68,109.92Z"/><path class="cls-2" d="M907.72,105.63l-3.38,4.28c-.74.94-2.1.61-2.88,0l0,0c-.93-.75-.61-2.11,0-2.89l3.42-4.24a1.72,1.72,0,0,1,1.57-.58,2.16,2.16,0,0,1,1.31.6,1.83,1.83,0,0,1,.55,1.14A2.39,2.39,0,0,1,907.72,105.63Z"/><path class="cls-2" d="M927.08,119.07h0a2.05,2.05,0,0,1-2-2v-5.47a2.07,2.07,0,0,1,2-2.06h0a2,2,0,0,1,2,2c0,1.83,0,3.65,0,5.47A2.06,2.06,0,0,1,927.08,119.07Z"/><path class="cls-2" d="M933.69,75.5a1,1,0,0,1,.11.9c-.12.2-.25.3-.37.3-.29,0-.68-.4-.87-.77a3.09,3.09,0,0,1-.14-1.83A3.9,3.9,0,0,1,933.69,75.5Z"/><path class="cls-2" d="M925.43,76.27a1.4,1.4,0,0,1,0,1.06.15.15,0,0,1-.14.07.9.9,0,0,1-.29-.08,1.72,1.72,0,0,1-.85-.89,2.6,2.6,0,0,1-.12-2.1l.14.18A8.54,8.54,0,0,1,925.43,76.27Z"/><path class="cls-2" d="M919.31,67.67a126.12,126.12,0,0,0,6.9-19.21h2.91a128.49,128.49,0,0,0,6.37,18.17,8.38,8.38,0,0,0-4.24,4.76,8.32,8.32,0,0,0-4.1-.6,7.79,7.79,0,0,0-3,.86A16,16,0,0,0,919.31,67.67Z"/><path class="cls-2" d="M915,71.19h-.13c-.24,0-.52-.1-.57-.31a1.24,1.24,0,0,1,.29-1,2.83,2.83,0,0,1,2.05-1.06h.16c-.15.32-.31.63-.47.95C916,70.41,915.55,71.1,915,71.19Z"/><path class="cls-2" d="M939.73,70.64h0c-.07,0-.26-.08-.71-.82l0-.06c-.28-.56-.56-1.14-.85-1.75a2.37,2.37,0,0,1,1.49.64,1.53,1.53,0,0,1,.37,1.19C940,70.4,939.81,70.61,939.73,70.64Z"/><path class="cls-2" d="M927.05,104.82a26.11,26.11,0,0,1-10.78-49.77V50a1.54,1.54,0,0,1,1.54-1.54h6.49a122.21,122.21,0,0,1-6.74,18.62,4.26,4.26,0,0,0-3.82,1A3.91,3.91,0,0,0,912.39,71a2.1,2.1,0,0,0,1,1.61,2.55,2.55,0,0,0,1.36.42c1.44,0,2.57-1.31,3.11-2.42.21-.41.42-.83.62-1.25a13.06,13.06,0,0,1,4.25,3.48,3.7,3.7,0,0,0-.67,1.73,5.36,5.36,0,0,0,1.24,3.73,2.18,2.18,0,0,0,3.13.48,2.26,2.26,0,0,0,1-1.57c.19-1.42-1-2.93-1.93-4l-.12-.14a4.14,4.14,0,0,1,.82-.26,7.07,7.07,0,0,1,4,.12l.56.24a9.08,9.08,0,0,0-.17,1.13A3.93,3.93,0,0,0,932,78a2.42,2.42,0,0,0,1.52.55,1.82,1.82,0,0,0,1.35-.55,2.68,2.68,0,0,0,.8-2.14,5,5,0,0,0-2.18-3.21c-.18-.13-.36-.26-.55-.38.47-1.31,1.45-3.26,3.31-4,.38.8.77,1.6,1.15,2.37a.86.86,0,0,0,.1.16c.34.52,1.22,1.68,2.31,1.68a1.65,1.65,0,0,0,1.11-.45,3.37,3.37,0,0,0,.67-3.63,3.74,3.74,0,0,0-3.73-2.29,5.44,5.44,0,0,0-.57,0A124.08,124.08,0,0,1,931,48.47h5.41A1.53,1.53,0,0,1,938,50v5.07a26.1,26.1,0,0,1-10.92,49.73Z"/><rect class="cls-1" x="927.13" y="15.04" width="1.24" height="15.4"/><path class="cls-1" d="M1102.29,36l-15.15,0a1.27,1.27,0,0,1,0-2.52l15.15,0a1.27,1.27,0,0,1,0,2.52Z"/><path class="cls-1" d="M1102.3,32.5l-15.15,0a1.27,1.27,0,0,1,0-2.52h1.62l1.64-3.34s.79-1.07,1.19-1.19,5.07-.63,6.51,0a2.36,2.36,0,0,1,1.26,1.28c.42.82,1.31,2.51,1.71,3.26h1.22a1.19,1.19,0,0,1,1.09,1.27A1.18,1.18,0,0,1,1102.3,32.5Z"/><path class="cls-1" d="M1102.29,39.54l-15.15,0a1.18,1.18,0,0,1-1.09-1.26,1.19,1.19,0,0,1,1.09-1.26l15.15,0a1.27,1.27,0,0,1,0,2.52Z"/><path class="cls-2" d="M1122.74,51.62l-3.83,1.92a1.62,1.62,0,0,1-2.19-.59v0a1.64,1.64,0,0,1,.59-2.2l3.83-1.92a1.61,1.61,0,0,1,2.19.59,1.67,1.67,0,0,1,.2.93A1.48,1.48,0,0,1,1122.74,51.62Z"/><path class="cls-2" d="M1072.64,52.92a1.61,1.61,0,0,1-2.19.57l-3.83-1.93a1.44,1.44,0,0,1-.76-1.3,1.68,1.68,0,0,1,.21-.93,1.6,1.6,0,0,1,2.19-.57l3.83,1.93a1.63,1.63,0,0,1,.56,2.21Z"/><path class="cls-2" d="M1124,72l-4.18-.89a1.38,1.38,0,0,1-.9-.63,1.43,1.43,0,0,1-.21-.49,2.08,2.08,0,0,1,0-.86s0,0,0,0a1.37,1.37,0,0,1,1.35-1.16,1.58,1.58,0,0,1,.61,0l4.18.94C1126.82,69.3,1126,72.38,1124,72Z"/><path class="cls-2" d="M1070.69,69.26a1.4,1.4,0,0,1-1.12,1.73l-4.18.94a1.61,1.61,0,0,1-2-1.13.07.07,0,0,0,0,0,1.63,1.63,0,0,1,1.13-2l4.18-.89A1.62,1.62,0,0,1,1070.69,69.26Z"/><path class="cls-2" d="M1114.85,88.82l0,0a1.62,1.62,0,0,1-2.27,0l-2.66-3.37a1.65,1.65,0,0,1,0-2.28l.12-.11a1.6,1.6,0,0,1,2.16.12c.89,1.12,1.79,2.23,2.69,3.35A1.64,1.64,0,0,1,1114.85,88.82Z"/><path class="cls-2" d="M1079.41,85.44l-2.66,3.37a1.62,1.62,0,0,1-2.27,0l0,0a1.63,1.63,0,0,1,0-2.28l2.7-3.35a1.35,1.35,0,0,1,1.23-.45,1.76,1.76,0,0,1,1,.47,1.49,1.49,0,0,1,.43.9A1.86,1.86,0,0,1,1079.41,85.44Z"/><path class="cls-2" d="M1094.67,96h0a1.64,1.64,0,0,1-1.62-1.61c0-1.43,0-2.87,0-4.31a1.63,1.63,0,0,1,1.6-1.62h0a1.54,1.54,0,0,1,1.07.4,1.49,1.49,0,0,1,.54,1.2c0,1.44,0,2.88,0,4.31A1.62,1.62,0,0,1,1094.67,96Z"/><path class="cls-2" d="M1099.88,61.69c.15.31.18.55.08.71s-.19.24-.29.24-.53-.31-.68-.61a2.36,2.36,0,0,1-.11-1.44A3.16,3.16,0,0,1,1099.88,61.69Z"/><path class="cls-2" d="M1093.37,62.3a1.09,1.09,0,0,1,0,.83.11.11,0,0,1-.11.06.62.62,0,0,1-.23-.06,1.35,1.35,0,0,1-.67-.7,2.12,2.12,0,0,1-.1-1.66l.12.14A7.05,7.05,0,0,1,1093.37,62.3Z"/><path class="cls-2" d="M1088.55,55.52A98.83,98.83,0,0,0,1094,40.38h2.3a100,100,0,0,0,5,14.32,6.64,6.64,0,0,0-3.34,3.75,6.63,6.63,0,0,0-3.24-.47,5.91,5.91,0,0,0-2.38.68A12.69,12.69,0,0,0,1088.55,55.52Z"/><path class="cls-2" d="M1085.11,58.3h-.1c-.19,0-.41-.07-.46-.24a1,1,0,0,1,.24-.83,2.25,2.25,0,0,1,1.61-.84h.13c-.12.26-.25.51-.37.76C1085.9,57.68,1085.58,58.23,1085.11,58.3Z"/><path class="cls-2" d="M1104.64,57.87h0c-.05,0-.21-.07-.56-.65l0,0-.67-1.37a1.84,1.84,0,0,1,1.17.5,1.19,1.19,0,0,1,.29.94C1104.81,57.67,1104.7,57.84,1104.64,57.87Z"/><path class="cls-2" d="M1094.64,84.8a20.57,20.57,0,0,1-8.49-39.22v-4a1.21,1.21,0,0,1,1.21-1.22h5.11a96,96,0,0,1-5.3,14.68,3.33,3.33,0,0,0-3,.81,3,3,0,0,0-1.08,2.29,1.63,1.63,0,0,0,.8,1.27,2,2,0,0,0,1.08.33,3.07,3.07,0,0,0,2.45-1.91c.17-.32.33-.65.49-1a10.36,10.36,0,0,1,3.34,2.74,3,3,0,0,0-.52,1.36,4.26,4.26,0,0,0,1,2.94,1.72,1.72,0,0,0,2.47.38,1.81,1.81,0,0,0,.79-1.23c.14-1.12-.82-2.31-1.53-3.18l-.09-.11a3.2,3.2,0,0,1,.64-.21,5.7,5.7,0,0,1,3.14.1l.44.19a7.08,7.08,0,0,0-.13.89,3.07,3.07,0,0,0,1.1,2.93,1.84,1.84,0,0,0,1.2.43,1.35,1.35,0,0,0,1.06-.43,2.11,2.11,0,0,0,.64-1.69,4,4,0,0,0-1.72-2.53l-.44-.29a5.12,5.12,0,0,1,2.61-3.15c.3.63.61,1.26.91,1.87l.08.12c.26.41,1,1.33,1.82,1.33a1.31,1.31,0,0,0,.87-.35,2.66,2.66,0,0,0,.53-2.87,2.94,2.94,0,0,0-2.94-1.8l-.45,0a98.2,98.2,0,0,1-4.92-13.94h4.27a1.22,1.22,0,0,1,1.21,1.22v4a20.58,20.58,0,0,1-8.61,39.2Z"/><rect class="cls-1" x="1094.71" y="14.04" width="0.98" height="12.14"/><path class="cls-1" d="M303.24,42.21l19.22,0a1.62,1.62,0,0,0,0-3.2l-19.22,0a1.61,1.61,0,0,0,0,3.19Z"/><path class="cls-1" d="M303.24,37.75l19.22,0a1.62,1.62,0,0,0,0-3.2H320.4l-2.08-4.24s-1-1.36-1.52-1.51-6.42-.8-8.26,0A3,3,0,0,0,307,30.41c-.54,1-1.68,3.18-2.18,4.13h-1.55a1.62,1.62,0,0,0,0,3.2Z"/><path class="cls-1" d="M303.25,46.67l19.22,0a1.62,1.62,0,0,0,0-3.2l-19.22,0a1.62,1.62,0,0,0,0,3.2Z"/><path class="cls-2" d="M277.3,62l4.86,2.44a2.06,2.06,0,0,0,2.78-.76v0a2.07,2.07,0,0,0-.75-2.79l-4.86-2.44a2,2,0,0,0-2.77.75,2.09,2.09,0,0,0-.26,1.18A1.88,1.88,0,0,0,277.3,62Z"/><path class="cls-2" d="M340.86,63.65a2.06,2.06,0,0,0,2.79.73l4.85-2.45a1.84,1.84,0,0,0,1-1.65,2.13,2.13,0,0,0-.27-1.19,2,2,0,0,0-2.78-.72l-4.85,2.45a2.06,2.06,0,0,0-.72,2.8S340.86,63.64,340.86,63.65Z"/><path class="cls-2" d="M275.75,87.8l5.31-1.12a1.83,1.83,0,0,0,1.14-.8,1.78,1.78,0,0,0,.26-.62,2.37,2.37,0,0,0,0-1.09s0,0,0-.07a1.76,1.76,0,0,0-1.71-1.48,2.33,2.33,0,0,0-.78,0l-5.3,1.19C272.13,84.43,273.2,88.34,275.75,87.8Z"/><path class="cls-2" d="M343.33,84.38a1.79,1.79,0,0,0,1.43,2.2l5.3,1.19a2,2,0,0,0,2.5-1.44s0,0,0-.06a2.06,2.06,0,0,0-1.43-2.51l-5.31-1.13A2.06,2.06,0,0,0,343.33,84.38Z"/><path class="cls-2" d="M287.31,109.2l0,0a2,2,0,0,0,2.88,0l3.38-4.28a2.1,2.1,0,0,0,0-2.89l-.15-.13a2,2,0,0,0-2.74.14q-1.69,2.13-3.41,4.25A2.09,2.09,0,0,0,287.31,109.2Z"/><path class="cls-2" d="M332.28,104.91c1.12,1.43,2.25,2.85,3.38,4.28.74.94,2.09.61,2.87,0l0,0a2.08,2.08,0,0,0,0-2.9L335.13,102a1.73,1.73,0,0,0-1.56-.58,2.11,2.11,0,0,0-1.31.6,1.9,1.9,0,0,0-.56,1.14A2.35,2.35,0,0,0,332.28,104.91Z"/><path class="cls-2" d="M312.91,118.35h0a2.06,2.06,0,0,0,2.05-2c0-1.82,0-3.65,0-5.47a2.06,2.06,0,0,0-2-2.06h0a1.88,1.88,0,0,0-1.35.51,1.83,1.83,0,0,0-.69,1.53v5.46A2.06,2.06,0,0,0,312.91,118.35Z"/><path class="cls-2" d="M306.3,74.78c-.19.39-.23.7-.1.9s.24.3.37.3c.28,0,.68-.4.86-.77a3,3,0,0,0,.15-1.83A3.94,3.94,0,0,0,306.3,74.78Z"/><path class="cls-2" d="M314.56,75.55a1.45,1.45,0,0,0,0,1.06.12.12,0,0,0,.13.07.93.93,0,0,0,.3-.08,1.67,1.67,0,0,0,.84-.89,2.64,2.64,0,0,0,.13-2.1l-.15.18A9,9,0,0,0,314.56,75.55Z"/><path class="cls-2" d="M320.68,67a126.15,126.15,0,0,1-6.89-19.21h-2.92a127.28,127.28,0,0,1-6.36,18.17,8.48,8.48,0,0,1,4.24,4.76,8.29,8.29,0,0,1,4.1-.6,7.74,7.74,0,0,1,3,.86A16.14,16.14,0,0,1,320.68,67Z"/><path class="cls-2" d="M325.05,70.47h.12c.24,0,.53-.1.58-.31a1.29,1.29,0,0,0-.29-1,2.9,2.9,0,0,0-2-1.06h-.17c.15.32.31.64.48,1C324,69.69,324.45,70.38,325.05,70.47Z"/><path class="cls-2" d="M300.26,69.92h0c.06,0,.26-.08.71-.82l0-.06c.28-.56.56-1.14.85-1.75a2.34,2.34,0,0,0-1.48.64,1.53,1.53,0,0,0-.37,1.19C300.05,69.68,300.19,69.89,300.26,69.92Z"/><path class="cls-2" d="M313,104.1a26.11,26.11,0,0,0,10.77-49.77V49.27a1.53,1.53,0,0,0-1.53-1.54h-6.49a122.24,122.24,0,0,0,6.73,18.62,4.25,4.25,0,0,1,3.82,1,3.87,3.87,0,0,1,1.36,2.91,2.06,2.06,0,0,1-1,1.61,2.53,2.53,0,0,1-1.37.42c-1.43,0-2.57-1.31-3.11-2.42-.21-.41-.41-.83-.62-1.25a13.13,13.13,0,0,0-4.24,3.48,3.92,3.92,0,0,1,.67,1.73,5.41,5.41,0,0,1-1.24,3.73,2.18,2.18,0,0,1-3.13.48,2.28,2.28,0,0,1-1-1.57c-.18-1.42,1-2.92,1.93-4l.12-.14a3.94,3.94,0,0,0-.82-.26,7,7,0,0,0-4,.12,5.55,5.55,0,0,0-.56.24c.07.38.13.76.17,1.13a3.93,3.93,0,0,1-1.4,3.72,2.47,2.47,0,0,1-1.53.55,1.8,1.8,0,0,1-1.34-.55,2.66,2.66,0,0,1-.81-2.14,5.06,5.06,0,0,1,2.19-3.21c.17-.13.36-.26.55-.38-.47-1.31-1.46-3.26-3.32-4-.38.8-.76,1.6-1.15,2.37a.86.86,0,0,1-.1.16c-.33.52-1.22,1.68-2.3,1.68a1.67,1.67,0,0,1-1.12-.45,3.35,3.35,0,0,1-.66-3.63,3.72,3.72,0,0,1,3.72-2.29,5.44,5.44,0,0,1,.57,0A125.29,125.29,0,0,0,309,47.75h-5.42A1.53,1.53,0,0,0,302,49.3v5.07A26.1,26.1,0,0,0,313,104.1Z"/><rect class="cls-1" x="311.63" y="14.32" width="1.24" height="15.4"/><path class="cls-1" d="M137.7,35.3l15.15,0a1.27,1.27,0,0,0,0-2.52l-15.15,0a1.27,1.27,0,0,0,0,2.52Z"/><path class="cls-1" d="M137.7,31.78l15.15,0a1.27,1.27,0,0,0,0-2.52h-1.62l-1.63-3.34s-.79-1.07-1.2-1.19-5.06-.63-6.51,0A2.42,2.42,0,0,0,140.63,26l-1.72,3.26h-1.22a1.27,1.27,0,0,0,0,2.52Z"/><path class="cls-1" d="M137.71,38.82l15.15,0a1.27,1.27,0,0,0,0-2.51l-15.15,0a1.27,1.27,0,0,0,0,2.52Z"/><path class="cls-2" d="M117.26,50.9l3.83,1.92a1.61,1.61,0,0,0,2.18-.59v0a1.62,1.62,0,0,0-.59-2.2l-3.83-1.92a1.59,1.59,0,0,0-2.38,1.52A1.44,1.44,0,0,0,117.26,50.9Z"/><path class="cls-2" d="M167.35,52.2a1.61,1.61,0,0,0,2.2.57l3.82-1.93a1.47,1.47,0,0,0,.77-1.3,1.68,1.68,0,0,0-.21-.93,1.61,1.61,0,0,0-2.2-.57L167.91,50a1.64,1.64,0,0,0-.57,2.21Z"/><path class="cls-2" d="M116,71.24l4.19-.89a1.39,1.39,0,0,0,.89-.63,1.13,1.13,0,0,0,.21-.49,1.79,1.79,0,0,0,0-.86.43.43,0,0,1,0-.05A1.37,1.37,0,0,0,120,67.16a1.64,1.64,0,0,0-.62,0l-4.17.94C113.18,68.58,114,71.66,116,71.24Z"/><path class="cls-2" d="M169.3,68.54a1.4,1.4,0,0,0,1.13,1.73l4.17.94a1.61,1.61,0,0,0,2-1.13.11.11,0,0,0,0,0,1.63,1.63,0,0,0-1.12-2l-4.19-.89A1.62,1.62,0,0,0,169.3,68.54Z"/><path class="cls-2" d="M125.15,88.1l0,0a1.61,1.61,0,0,0,2.26,0l2.67-3.37a1.66,1.66,0,0,0,0-2.28.4.4,0,0,0-.12-.1,1.58,1.58,0,0,0-2.15.11l-2.69,3.35A1.64,1.64,0,0,0,125.15,88.1Z"/><path class="cls-2" d="M160.58,84.72l2.67,3.37a1.62,1.62,0,0,0,2.27,0l0,0a1.64,1.64,0,0,0,0-2.28l-2.69-3.34a1.34,1.34,0,0,0-1.23-.46,1.73,1.73,0,0,0-1,.47,1.5,1.5,0,0,0-.44.9A1.9,1.9,0,0,0,160.58,84.72Z"/><path class="cls-2" d="M145.32,95.32h0A1.62,1.62,0,0,0,147,93.71c0-1.43,0-2.87,0-4.31a1.62,1.62,0,0,0-1.59-1.62h0a1.52,1.52,0,0,0-1.07.4,1.43,1.43,0,0,0-.54,1.2v4.31A1.63,1.63,0,0,0,145.32,95.32Z"/><path class="cls-2" d="M140.11,61c-.15.31-.18.55-.08.71s.2.24.29.24.54-.31.68-.61a2.36,2.36,0,0,0,.12-1.44A3.2,3.2,0,0,0,140.11,61Z"/><path class="cls-2" d="M146.62,61.58a1.09,1.09,0,0,0,0,.83.09.09,0,0,0,.1.06.58.58,0,0,0,.23-.06,1.35,1.35,0,0,0,.67-.7,2.07,2.07,0,0,0,.1-1.66,1.34,1.34,0,0,0-.11.14A7.11,7.11,0,0,0,146.62,61.58Z"/><path class="cls-2" d="M151.45,54.8A98.8,98.8,0,0,1,146,39.66h-2.29a101.19,101.19,0,0,1-5,14.32A6.67,6.67,0,0,1,142,57.74a6.59,6.59,0,0,1,3.23-.47,6,6,0,0,1,2.39.68A12.58,12.58,0,0,1,151.45,54.8Z"/><path class="cls-2" d="M154.89,57.58h.1c.19,0,.41-.07.45-.24a1,1,0,0,0-.23-.83,2.22,2.22,0,0,0-1.61-.83h-.14l.38.76C154.09,57,154.41,57.51,154.89,57.58Z"/><path class="cls-2" d="M135.35,57.15h0s.2-.07.56-.65l0,0c.23-.44.45-.89.67-1.37a1.81,1.81,0,0,0-1.16.5,1.21,1.21,0,0,0-.3.94C135.18,57,135.29,57.12,135.35,57.15Z"/><path class="cls-2" d="M145.35,84.08a20.57,20.57,0,0,0,8.49-39.22v-4a1.22,1.22,0,0,0-1.21-1.22h-5.12a97,97,0,0,0,5.31,14.68,3.35,3.35,0,0,1,3,.81,3.06,3.06,0,0,1,1.07,2.29,1.61,1.61,0,0,1-.8,1.27A2,2,0,0,1,155,59a3.09,3.09,0,0,1-2.46-1.91l-.48-1a10.5,10.5,0,0,0-3.35,2.74,3.06,3.06,0,0,1,.53,1.36,4.22,4.22,0,0,1-1,2.94,1.7,1.7,0,0,1-2.46.38,1.78,1.78,0,0,1-.79-1.23c-.15-1.12.82-2.31,1.52-3.18l.1-.11a3.3,3.3,0,0,0-.65-.21,5.67,5.67,0,0,0-3.13.1l-.44.19c.05.3.1.6.13.89a3.11,3.11,0,0,1-1.1,2.93,1.87,1.87,0,0,1-1.21.43A1.37,1.37,0,0,1,139.2,63a2.1,2.1,0,0,1-.63-1.69,4,4,0,0,1,1.72-2.53l.43-.29a5.09,5.09,0,0,0-2.61-3.15c-.3.63-.6,1.26-.91,1.87a.75.75,0,0,1-.07.12c-.27.41-1,1.33-1.82,1.33a1.33,1.33,0,0,1-.88-.35,2.66,2.66,0,0,1-.52-2.87,2.94,2.94,0,0,1,2.93-1.8l.45,0a98.16,98.16,0,0,0,4.93-13.94H138a1.22,1.22,0,0,0-1.21,1.22v4a20.58,20.58,0,0,0,8.61,39.2Z"/><rect class="cls-1" x="144.31" y="13.32" width="0.98" height="12.14"/></svg>