{"accessors" : [{"bufferView" : 0, "byteOffset" : 0, "componentType" : 5123, "count" : 36, "type" : "SCALAR", "max" : [29], "min" : [0]}, {"bufferView" : 1, "byteOffset" : 0, "componentType" : 5126, "count" : 30, "type" : "VEC3", "max" : [1.9500000476837158, 1.9500000476837158, 1.9500000476837158], "min" : [-1.9500000476837158, -1.9500000476837158, -1.9500000476837158], "name" : "POSITION"}, {"bufferView" : 1, "byteOffset" : 12, "componentType" : 5126, "count" : 30, "type" : "VEC3", "max" : [1.0000044107437134, 1.0000044107437134, 1.0000044107437134], "min" : [-1.0000044107437134, -1.0000044107437134, -1.0000044107437134], "name" : "NORMAL"}, {"bufferView" : 1, "byteOffset" : 24, "componentType" : 5126, "count" : 30, "type" : "VEC2", "max" : [0.875, 1], "min" : [0.125, 0], "name" : "TEXCOORD_0"}], "asset" : {"generator" : "Aspose.3D 21.8.1", "version" : "2.0"}, "buffers" : [{"uri" : "data:application/octet-stream;base64,", "byteLength" : 1232}], "bufferViews" : [{"buffer" : 0, "byteOffset" : 0, "byteLength" : 72, "target" : 34963}, {"buffer" : 0, "byteOffset" : 76, "byteLength" : 1152, "byteStride" : 32, "target" : 34962}], "images" : [{"uri" : "..\\imagenes\\fondo_calle.jpg"}], "materials" : [{"name" : "lambert2", "pbrMetallicRoughness" : {"baseColorFactor" : [0.800000011920929, 0.800000011920929, 0.800000011920929, 1], "baseColorTexture" : {"index" : 0, "texCoord" : 0}, "metallicFactor" : 0, "roughnessFactor" : 1}, "emissiveFactor" : [0, 0, 0], "alphaMode" : "OPAQUE", "doubleSided" : false}], "meshes" : [{"primitives" : [{"attributes" : {"POSITION" : 1, "NORMAL" : 2, "TEXCOORD_0" : 3}, "indices" : 0, "material" : 0, "mode" : 4}]}], "nodes" : [{"mesh" : 0, "name" : "pCube1"}, {"children" : [0], "matrix" : [1, 0, 0, 0, 0, 1, 0, 0, 0, 0, 1, 0, 0, 1.9150099754333496, 0, 1], "name" : "node"}, {"children" : [1]}], "samplers" : [{"magFilter" : 9728, "minFilter" : 9728, "wrapS" : 10497, "wrapT" : 10497}], "scene" : 0, "scenes" : [{"nodes" : [2]}], "textures" : [{"sampler" : 0, "source" : 0}]}