<?xml version="1.0" encoding="utf-8"?>
<!-- Generator: Adobe Illustrator 24.0.0, SVG Export Plug-In . SVG Version: 6.00 Build 0)  -->
<svg version="1.1" id="Capa_1" xmlns="http://www.w3.org/2000/svg" xmlns:xlink="http://www.w3.org/1999/xlink" x="0px" y="0px"
	 viewBox="0 0 1920 1082" style="enable-background:new 0 0 1920 1082;" xml:space="preserve">
<style type="text/css">
	.st0{clip-path:url(#SVGID_2_);}
	.st1{fill:#E7E7E8;}
	.st2{fill:#A2A2A2;}
	.st3{fill:#F3F2F2;}
	.st4{fill:#7A7A7A;}
	.st5{fill:#5D5D5B;}
	.st6{fill:#D1D1D1;}
	.st7{fill:#6D6E6D;}
	.st8{fill:#474645;}
	.st9{fill:#BBBBB9;}
	.st10{fill:url(#Rectángulo_319-3_1_);}
	.st11{fill:#545353;}
</style>
<g id="Grupo_209-3" transform="translate(4096 87.373)">
	<g>
		<defs>
			<rect id="SVGID_1_" x="-4096.4" y="-86.9" width="1920" height="1081.3"/>
		</defs>
		<clipPath id="SVGID_2_">
			<use xlink:href="#SVGID_1_"  style="overflow:visible;"/>
		</clipPath>
		<g id="Grupo_208-3" transform="translate(0 0)" class="st0">
			<rect id="Rectángulo_73-3" x="-4096.4" y="-224.1" class="st1" width="1921.7" height="1082.3"/>
			<g id="Grupo_156-3" transform="translate(446.056 -55.222)">
				<path id="Trazado_147-3" class="st2" d="M-3873.4,913.4h-223V-1.2l223-85.8V913.4z"/>
				<path id="Trazado_148-3" class="st2" d="M-4034.6,913.4h-61.8V-1.2l61.7-18.9L-4034.6,913.4z"/>
				<g id="Grupo_155-3" transform="translate(23.449 119.314)">
					<g id="Grupo_143-3">
						<rect id="Rectángulo_74-3" x="-4096.4" y="-86.9" class="st3" width="24.2" height="24.2"/>
						<rect id="Rectángulo_75-3" x="-4058" y="-86.9" class="st3" width="24.2" height="24.2"/>
						<rect id="Rectángulo_76-3" x="-4019.7" y="-86.9" class="st3" width="24.2" height="24.2"/>
						<rect id="Rectángulo_77-3" x="-3982.8" y="-86.9" class="st3" width="24.2" height="24.2"/>
						<rect id="Rectángulo_78-3" x="-3946" y="-86.9" class="st3" width="24.2" height="24.2"/>
					</g>
					<g id="Grupo_144-3" transform="translate(0 42.89)">
						<rect id="Rectángulo_79-3" x="-4096.4" y="-86.9" class="st3" width="24.2" height="24.2"/>
						<rect id="Rectángulo_80-3" x="-4058" y="-86.9" class="st3" width="24.2" height="24.2"/>
						<rect id="Rectángulo_81-3" x="-4019.7" y="-86.9" class="st3" width="24.2" height="24.2"/>
						<rect id="Rectángulo_82-3" x="-3982.8" y="-86.9" class="st3" width="24.2" height="24.2"/>
						<rect id="Rectángulo_83-3" x="-3946" y="-86.9" class="st3" width="24.2" height="24.2"/>
					</g>
					<g id="Grupo_145-3" transform="translate(0 85.78)">
						<rect id="Rectángulo_84-3" x="-4096.4" y="-86.9" class="st3" width="24.2" height="24.2"/>
						<rect id="Rectángulo_85-3" x="-4058" y="-86.9" class="st3" width="24.2" height="24.2"/>
						<rect id="Rectángulo_86-3" x="-4019.7" y="-86.9" class="st3" width="24.2" height="24.2"/>
						<rect id="Rectángulo_87-3" x="-3982.8" y="-86.9" class="st3" width="24.2" height="24.2"/>
						<rect id="Rectángulo_88-3" x="-3946" y="-86.9" class="st3" width="24.2" height="24.2"/>
					</g>
					<g id="Grupo_146-3" transform="translate(0 128.671)">
						<rect id="Rectángulo_89-3" x="-4096.4" y="-86.9" class="st3" width="24.2" height="24.2"/>
						<rect id="Rectángulo_90-3" x="-4058" y="-86.9" class="st3" width="24.2" height="24.2"/>
						<rect id="Rectángulo_91-3" x="-4019.7" y="-86.9" class="st3" width="24.2" height="24.2"/>
						<rect id="Rectángulo_92-3" x="-3982.8" y="-86.9" class="st3" width="24.2" height="24.2"/>
						<rect id="Rectángulo_93-3" x="-3946" y="-86.9" class="st3" width="24.2" height="24.2"/>
					</g>
					<g id="Grupo_147-3" transform="translate(0 171.561)">
						<rect id="Rectángulo_94-3" x="-4096.4" y="-86.9" class="st3" width="24.2" height="24.2"/>
						<rect id="Rectángulo_95-3" x="-4058" y="-86.9" class="st3" width="24.2" height="24.2"/>
						<rect id="Rectángulo_96-3" x="-4019.7" y="-86.9" class="st3" width="24.2" height="24.2"/>
						<rect id="Rectángulo_97-3" x="-3982.8" y="-86.9" class="st3" width="24.2" height="24.2"/>
						<rect id="Rectángulo_98-3" x="-3946" y="-86.9" class="st3" width="24.2" height="24.2"/>
					</g>
					<g id="Grupo_148-3" transform="translate(0 214.451)">
						<rect id="Rectángulo_99-3" x="-4096.4" y="-86.9" class="st3" width="24.2" height="24.2"/>
						<rect id="Rectángulo_100-3" x="-4058" y="-86.9" class="st3" width="24.2" height="24.2"/>
						<rect id="Rectángulo_101-3" x="-4019.7" y="-86.9" class="st3" width="24.2" height="24.2"/>
						<rect id="Rectángulo_102-3" x="-3982.8" y="-86.9" class="st3" width="24.2" height="24.2"/>
						<rect id="Rectángulo_103-3" x="-3946" y="-86.9" class="st3" width="24.2" height="24.2"/>
					</g>
					<g id="Grupo_149-3" transform="translate(1.551 257.341)">
						<rect id="Rectángulo_104-3" x="-4096.4" y="-86.9" class="st3" width="24.2" height="24.2"/>
						<rect id="Rectángulo_105-3" x="-4058" y="-86.9" class="st3" width="24.2" height="24.2"/>
						<rect id="Rectángulo_106-3" x="-4019.7" y="-86.9" class="st3" width="24.2" height="24.2"/>
						<rect id="Rectángulo_107-3" x="-3982.8" y="-86.9" class="st3" width="24.2" height="24.2"/>
						<rect id="Rectángulo_108-3" x="-3946" y="-86.9" class="st3" width="24.2" height="24.2"/>
					</g>
					<g id="Grupo_150-3" transform="translate(0 300.231)">
						<rect id="Rectángulo_109-3" x="-4096.4" y="-86.9" class="st3" width="24.2" height="24.2"/>
						<rect id="Rectángulo_110-3" x="-4058" y="-86.9" class="st3" width="24.2" height="24.2"/>
						<rect id="Rectángulo_111-3" x="-4019.7" y="-86.9" class="st3" width="24.2" height="24.2"/>
						<rect id="Rectángulo_112-3" x="-3982.8" y="-86.9" class="st3" width="24.2" height="24.2"/>
						<rect id="Rectángulo_113-3" x="-3946" y="-86.9" class="st3" width="24.2" height="24.2"/>
					</g>
					<g id="Grupo_151-3" transform="translate(0 343.121)">
						<rect id="Rectángulo_114-3" x="-4096.4" y="-86.9" class="st3" width="24.2" height="24.2"/>
						<rect id="Rectángulo_115-3" x="-4058" y="-86.9" class="st3" width="24.2" height="24.2"/>
						<rect id="Rectángulo_116-3" x="-4019.7" y="-86.9" class="st3" width="24.2" height="24.2"/>
						<rect id="Rectángulo_117-3" x="-3982.8" y="-86.9" class="st3" width="24.2" height="24.2"/>
						<rect id="Rectángulo_118-3" x="-3946" y="-86.9" class="st3" width="24.2" height="24.2"/>
					</g>
					<g id="Grupo_152-3" transform="translate(0 386.012)">
						<rect id="Rectángulo_119-3" x="-4096.4" y="-86.9" class="st3" width="24.2" height="24.2"/>
						<rect id="Rectángulo_120-3" x="-4058" y="-86.9" class="st3" width="24.2" height="24.2"/>
						<rect id="Rectángulo_121-3" x="-4019.7" y="-86.9" class="st3" width="24.2" height="24.2"/>
						<rect id="Rectángulo_122-3" x="-3982.8" y="-86.9" class="st3" width="24.2" height="24.2"/>
						<rect id="Rectángulo_123-3" x="-3946" y="-86.9" class="st3" width="24.2" height="24.2"/>
					</g>
					<g id="Grupo_153-3" transform="translate(0 428.902)">
						<rect id="Rectángulo_124-3" x="-4096.4" y="-86.9" class="st3" width="24.2" height="24.2"/>
						<rect id="Rectángulo_125-3" x="-4058" y="-86.9" class="st3" width="24.2" height="24.2"/>
						<rect id="Rectángulo_126-3" x="-4019.7" y="-86.9" class="st3" width="24.2" height="24.2"/>
						<rect id="Rectángulo_127-3" x="-3982.8" y="-86.9" class="st3" width="24.2" height="24.2"/>
						<rect id="Rectángulo_128-3" x="-3946" y="-86.9" class="st3" width="24.2" height="24.2"/>
					</g>
					<g id="Grupo_154-3" transform="translate(0 471.792)">
						<rect id="Rectángulo_129-3" x="-4096.4" y="-86.9" class="st3" width="24.2" height="24.2"/>
						<rect id="Rectángulo_130-3" x="-4058" y="-86.9" class="st3" width="24.2" height="24.2"/>
						<rect id="Rectángulo_131-3" x="-4019.7" y="-86.9" class="st3" width="24.2" height="24.2"/>
						<rect id="Rectángulo_132-3" x="-3982.8" y="-86.9" class="st3" width="24.2" height="24.2"/>
						<rect id="Rectángulo_133-3" x="-3946" y="-86.9" class="st3" width="24.2" height="24.2"/>
					</g>
				</g>
			</g>
			<g id="Grupo_158-3" transform="translate(695.496 51.817)">
				<rect id="Rectángulo_134-3" x="-4096.4" y="-86.9" class="st2" width="196.6" height="893.3"/>
				<rect id="Rectángulo_135-3" x="-4096.4" y="-86.9" class="st2" width="61.7" height="893.3"/>
				<g id="Grupo_157-3" transform="translate(23.307 27.047)">
					<rect id="Rectángulo_136-3" x="-4096.4" y="-86.9" class="st3" width="149.9" height="24.2"/>
					<rect id="Rectángulo_137-3" x="-4096.4" y="-44.1" class="st3" width="149.9" height="24.2"/>
					<rect id="Rectángulo_138-3" x="-4096.4" y="-1.2" class="st3" width="149.9" height="24.2"/>
					<rect id="Rectángulo_139-3" x="-4096.4" y="41.7" class="st3" width="149.9" height="24.2"/>
				</g>
			</g>
			<path id="Trazado_149-3" class="st4" d="M-4096.4,506.7c0,0,87-111.1,353.4-158.1s348.7,29.5,493.2,29.5
				c144.5,0,461.3,184.2,646.8,95s353.3-133.4,428.3-127.7v512.7l-1921.7-0.5V506.7z"/>
			<g id="Grupo_172-3_1_" transform="translate(-3.906 -73.591)">
				<rect id="Rectángulo_140-3" x="-4096.4" y="-86.9" class="st5" width="226.9" height="1018.2"/>
				<rect id="Rectángulo_141-3" x="-4096.4" y="-86.9" class="st5" width="63.8" height="1018.2"/>
				<g id="Grupo_171-3" transform="translate(24.711 18.37)">
					<g id="Grupo_159-3">
						<rect id="Rectángulo_142-3" x="-4096.4" y="-86.9" class="st6" width="24.6" height="24.2"/>
						<rect id="Rectángulo_143-3" x="-4057.4" y="-86.9" class="st6" width="24.6" height="24.2"/>
						<rect id="Rectángulo_144-3" x="-4018.3" y="-86.9" class="st6" width="24.6" height="24.2"/>
						<rect id="Rectángulo_145-3" x="-3980.8" y="-86.9" class="st6" width="24.6" height="24.2"/>
						<rect id="Rectángulo_146-3" x="-3943.4" y="-86.9" class="st6" width="24.6" height="24.2"/>
					</g>
					<g id="Grupo_160-3" transform="translate(0 42.89)">
						<rect id="Rectángulo_147-3" x="-4096.4" y="-86.9" class="st6" width="24.6" height="24.2"/>
						<rect id="Rectángulo_148-3" x="-4057.4" y="-86.9" class="st6" width="24.6" height="24.2"/>
						<rect id="Rectángulo_149-3" x="-4018.3" y="-86.9" class="st6" width="24.6" height="24.2"/>
						<rect id="Rectángulo_150-3" x="-3980.8" y="-86.9" class="st6" width="24.6" height="24.2"/>
						<rect id="Rectángulo_151-3" x="-3943.4" y="-86.9" class="st6" width="24.6" height="24.2"/>
					</g>
					<g id="Grupo_161-3" transform="translate(0 85.78)">
						<rect id="Rectángulo_152-3" x="-4096.4" y="-86.9" class="st6" width="24.6" height="24.2"/>
						<rect id="Rectángulo_153-3" x="-4057.4" y="-86.9" class="st6" width="24.6" height="24.2"/>
						<rect id="Rectángulo_154-3" x="-4018.3" y="-86.9" class="st6" width="24.6" height="24.2"/>
						<rect id="Rectángulo_155-3" x="-3980.8" y="-86.9" class="st6" width="24.6" height="24.2"/>
						<rect id="Rectángulo_156-3" x="-3943.4" y="-86.9" class="st6" width="24.6" height="24.2"/>
					</g>
					<g id="Grupo_162-3" transform="translate(0 128.671)">
						<rect id="Rectángulo_157-3" x="-4096.4" y="-86.9" class="st6" width="24.6" height="24.2"/>
						<rect id="Rectángulo_158-3" x="-4057.4" y="-86.9" class="st6" width="24.6" height="24.2"/>
						<rect id="Rectángulo_159-3" x="-4018.3" y="-86.9" class="st6" width="24.6" height="24.2"/>
						<rect id="Rectángulo_160-3" x="-3980.8" y="-86.9" class="st6" width="24.6" height="24.2"/>
						<rect id="Rectángulo_161-3" x="-3943.4" y="-86.9" class="st6" width="24.6" height="24.2"/>
					</g>
					<g id="Grupo_163-3" transform="translate(0 171.561)">
						<rect id="Rectángulo_162-3" x="-4096.4" y="-86.9" class="st6" width="24.6" height="24.2"/>
						<rect id="Rectángulo_163-3" x="-4057.4" y="-86.9" class="st6" width="24.6" height="24.2"/>
						<rect id="Rectángulo_164-3" x="-4018.3" y="-86.9" class="st6" width="24.6" height="24.2"/>
						<rect id="Rectángulo_165-3" x="-3980.8" y="-86.9" class="st6" width="24.6" height="24.2"/>
						<rect id="Rectángulo_166-3" x="-3943.4" y="-86.9" class="st6" width="24.6" height="24.2"/>
					</g>
					<g id="Grupo_164-3" transform="translate(0 214.451)">
						<rect id="Rectángulo_167-3" x="-4096.4" y="-86.9" class="st6" width="24.6" height="24.2"/>
						<rect id="Rectángulo_168-3" x="-4057.4" y="-86.9" class="st6" width="24.6" height="24.2"/>
						<rect id="Rectángulo_169-3" x="-4018.3" y="-86.9" class="st6" width="24.6" height="24.2"/>
						<rect id="Rectángulo_170-3" x="-3980.8" y="-86.9" class="st6" width="24.6" height="24.2"/>
						<rect id="Rectángulo_171-3" x="-3943.4" y="-86.9" class="st6" width="24.6" height="24.2"/>
					</g>
					<g id="Grupo_165-3" transform="translate(1.578 257.341)">
						<rect id="Rectángulo_172-3" x="-4096.4" y="-86.9" class="st6" width="24.6" height="24.2"/>
						<rect id="Rectángulo_173-3" x="-4057.4" y="-86.9" class="st6" width="24.6" height="24.2"/>
						<rect id="Rectángulo_174-3" x="-4018.3" y="-86.9" class="st6" width="24.6" height="24.2"/>
						<rect id="Rectángulo_175-3" x="-3980.8" y="-86.9" class="st6" width="24.6" height="24.2"/>
						<rect id="Rectángulo_176-3" x="-3943.4" y="-86.9" class="st6" width="24.6" height="24.2"/>
					</g>
					<g id="Grupo_166-3" transform="translate(0 300.231)">
						<rect id="Rectángulo_177-3" x="-4096.4" y="-86.9" class="st6" width="24.6" height="24.2"/>
						<rect id="Rectángulo_178-3" x="-4057.4" y="-86.9" class="st6" width="24.6" height="24.2"/>
						<rect id="Rectángulo_179-3" x="-4018.3" y="-86.9" class="st6" width="24.6" height="24.2"/>
						<rect id="Rectángulo_180-3" x="-3980.8" y="-86.9" class="st6" width="24.6" height="24.2"/>
						<rect id="Rectángulo_181-3" x="-3943.4" y="-86.9" class="st6" width="24.6" height="24.2"/>
					</g>
					<g id="Grupo_167-3" transform="translate(0 343.121)">
						<rect id="Rectángulo_182-3" x="-4096.4" y="-86.9" class="st6" width="24.6" height="24.2"/>
						<rect id="Rectángulo_183-3" x="-4057.4" y="-86.9" class="st6" width="24.6" height="24.2"/>
						<rect id="Rectángulo_184-3" x="-4018.3" y="-86.9" class="st6" width="24.6" height="24.2"/>
						<rect id="Rectángulo_185-3" x="-3980.8" y="-86.9" class="st6" width="24.6" height="24.2"/>
						<rect id="Rectángulo_186-3" x="-3943.4" y="-86.9" class="st6" width="24.6" height="24.2"/>
					</g>
					<g id="Grupo_168-3" transform="translate(0 386.012)">
						<rect id="Rectángulo_187-3" x="-4096.4" y="-86.9" class="st6" width="24.6" height="24.2"/>
						<rect id="Rectángulo_188-3" x="-4057.4" y="-86.9" class="st6" width="24.6" height="24.2"/>
						<rect id="Rectángulo_189-3" x="-4018.3" y="-86.9" class="st6" width="24.6" height="24.2"/>
						<rect id="Rectángulo_190-3" x="-3980.8" y="-86.9" class="st6" width="24.6" height="24.2"/>
						<rect id="Rectángulo_191-3" x="-3943.4" y="-86.9" class="st6" width="24.6" height="24.2"/>
					</g>
					<g id="Grupo_169-3" transform="translate(0 428.902)">
						<rect id="Rectángulo_192-3" x="-4096.4" y="-86.9" class="st6" width="24.6" height="24.2"/>
						<rect id="Rectángulo_193-3" x="-4057.4" y="-86.9" class="st6" width="24.6" height="24.2"/>
						<rect id="Rectángulo_194-3" x="-4018.3" y="-86.9" class="st6" width="24.6" height="24.2"/>
						<rect id="Rectángulo_195-3" x="-3980.8" y="-86.9" class="st6" width="24.6" height="24.2"/>
						<rect id="Rectángulo_196-3" x="-3943.4" y="-86.9" class="st6" width="24.6" height="24.2"/>
					</g>
					<g id="Grupo_170-3" transform="translate(0 471.792)">
						<rect id="Rectángulo_197-3" x="-4096.4" y="-86.9" class="st6" width="24.6" height="24.2"/>
						<rect id="Rectángulo_198-3" x="-4057.4" y="-86.9" class="st6" width="24.6" height="24.2"/>
						<rect id="Rectángulo_199-3" x="-4018.3" y="-86.9" class="st6" width="24.6" height="24.2"/>
						<rect id="Rectángulo_200-3" x="-3980.8" y="-86.9" class="st6" width="24.6" height="24.2"/>
						<rect id="Rectángulo_201-3" x="-3943.4" y="-86.9" class="st6" width="24.6" height="24.2"/>
					</g>
				</g>
			</g>
			<g id="Grupo_186-5_1_" transform="translate(1692.898 33.977)">
				<path id="Trazado_150-3" class="st5" d="M-3867.6,824.2h-228.8v-814l122.1-97.2l106.7,94.4L-3867.6,824.2z"/>
				<path id="Trazado_151-3" class="st5" d="M-4063.1,824.2h-33.3v-814l24.7-19.7L-4063.1,824.2z"/>
				<g id="Grupo_185-3" transform="translate(33.295 149.428)">
					<g id="Grupo_173-3">
						<rect id="Rectángulo_202-3" x="-4096.4" y="-86.9" class="st6" width="24.2" height="24.2"/>
						<rect id="Rectángulo_203-3" x="-4058" y="-86.9" class="st6" width="24.2" height="24.2"/>
						<rect id="Rectángulo_204-3" x="-4019.7" y="-86.9" class="st6" width="24.2" height="24.2"/>
						<rect id="Rectángulo_205-3" x="-3982.8" y="-86.9" class="st6" width="24.2" height="24.2"/>
						<rect id="Rectángulo_206-3" x="-3946" y="-86.9" class="st6" width="24.2" height="24.2"/>
					</g>
					<g id="Grupo_174-3" transform="translate(0 42.89)">
						<rect id="Rectángulo_207-3" x="-4096.4" y="-86.9" class="st6" width="24.2" height="24.2"/>
						<rect id="Rectángulo_208-3" x="-4058" y="-86.9" class="st6" width="24.2" height="24.2"/>
						<rect id="Rectángulo_209-3" x="-4019.7" y="-86.9" class="st6" width="24.2" height="24.2"/>
						<rect id="Rectángulo_210-3" x="-3982.8" y="-86.9" class="st6" width="24.2" height="24.2"/>
						<rect id="Rectángulo_211-3" x="-3946" y="-86.9" class="st6" width="24.2" height="24.2"/>
					</g>
					<g id="Grupo_175-3" transform="translate(0 85.78)">
						<rect id="Rectángulo_212-3" x="-4096.4" y="-86.9" class="st6" width="24.2" height="24.2"/>
						<rect id="Rectángulo_213-3" x="-4058" y="-86.9" class="st6" width="24.2" height="24.2"/>
						<rect id="Rectángulo_214-3" x="-4019.7" y="-86.9" class="st6" width="24.2" height="24.2"/>
						<rect id="Rectángulo_215-3" x="-3982.8" y="-86.9" class="st6" width="24.2" height="24.2"/>
						<rect id="Rectángulo_216-3" x="-3946" y="-86.9" class="st6" width="24.2" height="24.2"/>
					</g>
					<g id="Grupo_176-3" transform="translate(0 128.671)">
						<rect id="Rectángulo_217-3" x="-4096.4" y="-86.9" class="st6" width="24.2" height="24.2"/>
						<rect id="Rectángulo_218-3" x="-4058" y="-86.9" class="st6" width="24.2" height="24.2"/>
						<rect id="Rectángulo_219-3" x="-4019.7" y="-86.9" class="st6" width="24.2" height="24.2"/>
						<rect id="Rectángulo_220-3" x="-3982.8" y="-86.9" class="st6" width="24.2" height="24.2"/>
						<rect id="Rectángulo_221-3" x="-3946" y="-86.9" class="st6" width="24.2" height="24.2"/>
					</g>
					<g id="Grupo_177-3" transform="translate(0 171.561)">
						<rect id="Rectángulo_222-3" x="-4096.4" y="-86.9" class="st6" width="24.2" height="24.2"/>
						<rect id="Rectángulo_223-3" x="-4058" y="-86.9" class="st6" width="24.2" height="24.2"/>
						<rect id="Rectángulo_224-3" x="-4019.7" y="-86.9" class="st6" width="24.2" height="24.2"/>
						<rect id="Rectángulo_225-3" x="-3982.8" y="-86.9" class="st6" width="24.2" height="24.2"/>
						<rect id="Rectángulo_226-3" x="-3946" y="-86.9" class="st6" width="24.2" height="24.2"/>
					</g>
					<g id="Grupo_178-3" transform="translate(0 214.451)">
						<rect id="Rectángulo_227-3" x="-4096.4" y="-86.9" class="st6" width="24.2" height="24.2"/>
						<rect id="Rectángulo_228-3" x="-4058" y="-86.9" class="st6" width="24.2" height="24.2"/>
						<rect id="Rectángulo_229-3" x="-4019.7" y="-86.9" class="st6" width="24.2" height="24.2"/>
						<rect id="Rectángulo_230-3" x="-3982.8" y="-86.9" class="st6" width="24.2" height="24.2"/>
						<rect id="Rectángulo_231-3" x="-3946" y="-86.9" class="st6" width="24.2" height="24.2"/>
					</g>
					<g id="Grupo_179-3" transform="translate(1.551 257.341)">
						<rect id="Rectángulo_232-3" x="-4096.4" y="-86.9" class="st6" width="24.2" height="24.2"/>
						<rect id="Rectángulo_233-3" x="-4058" y="-86.9" class="st6" width="24.2" height="24.2"/>
						<rect id="Rectángulo_234-3" x="-4019.7" y="-86.9" class="st6" width="24.2" height="24.2"/>
						<rect id="Rectángulo_235-3" x="-3982.8" y="-86.9" class="st6" width="24.2" height="24.2"/>
						<rect id="Rectángulo_236-3" x="-3946" y="-86.9" class="st6" width="24.2" height="24.2"/>
					</g>
					<g id="Grupo_180-3" transform="translate(0 300.231)">
						<rect id="Rectángulo_237-3" x="-4096.4" y="-86.9" class="st6" width="24.2" height="24.2"/>
						<rect id="Rectángulo_238-3" x="-4058" y="-86.9" class="st6" width="24.2" height="24.2"/>
						<rect id="Rectángulo_239-3" x="-4019.7" y="-86.9" class="st6" width="24.2" height="24.2"/>
						<rect id="Rectángulo_240-3" x="-3982.8" y="-86.9" class="st6" width="24.2" height="24.2"/>
						<rect id="Rectángulo_241-3" x="-3946" y="-86.9" class="st6" width="24.2" height="24.2"/>
					</g>
					<g id="Grupo_181-3" transform="translate(0 343.121)">
						<rect id="Rectángulo_242-3" x="-4096.4" y="-86.9" class="st6" width="24.2" height="24.2"/>
						<rect id="Rectángulo_243-3" x="-4058" y="-86.9" class="st6" width="24.2" height="24.2"/>
						<rect id="Rectángulo_244-3" x="-4019.7" y="-86.9" class="st6" width="24.2" height="24.2"/>
						<rect id="Rectángulo_245-3" x="-3982.8" y="-86.9" class="st6" width="24.2" height="24.2"/>
						<rect id="Rectángulo_246-3" x="-3946" y="-86.9" class="st6" width="24.2" height="24.2"/>
					</g>
					<g id="Grupo_182-3" transform="translate(0 386.012)">
						<rect id="Rectángulo_247-3" x="-4096.4" y="-86.9" class="st6" width="24.2" height="24.2"/>
						<rect id="Rectángulo_248-3" x="-4058" y="-86.9" class="st6" width="24.2" height="24.2"/>
						<rect id="Rectángulo_249-3" x="-4019.7" y="-86.9" class="st6" width="24.2" height="24.2"/>
						<rect id="Rectángulo_250-3" x="-3982.8" y="-86.9" class="st6" width="24.2" height="24.2"/>
						<rect id="Rectángulo_251-3" x="-3946" y="-86.9" class="st6" width="24.2" height="24.2"/>
					</g>
					<g id="Grupo_183-3" transform="translate(0 428.902)">
						<rect id="Rectángulo_252-3" x="-4096.4" y="-86.9" class="st6" width="24.2" height="24.2"/>
						<rect id="Rectángulo_253-3" x="-4058" y="-86.9" class="st6" width="24.2" height="24.2"/>
						<rect id="Rectángulo_254-3" x="-4019.7" y="-86.9" class="st6" width="24.2" height="24.2"/>
						<rect id="Rectángulo_255-3" x="-3982.8" y="-86.9" class="st6" width="24.2" height="24.2"/>
						<rect id="Rectángulo_256-3" x="-3946" y="-86.9" class="st6" width="24.2" height="24.2"/>
					</g>
					<g id="Grupo_184-3" transform="translate(0 471.792)">
						<rect id="Rectángulo_257-3" x="-4096.4" y="-86.9" class="st6" width="24.2" height="24.2"/>
						<rect id="Rectángulo_258-3" x="-4058" y="-86.9" class="st6" width="24.2" height="24.2"/>
						<rect id="Rectángulo_259-3" x="-4019.7" y="-86.9" class="st6" width="24.2" height="24.2"/>
						<rect id="Rectángulo_260-3" x="-3982.8" y="-86.9" class="st6" width="24.2" height="24.2"/>
						<rect id="Rectángulo_261-3" x="-3946" y="-86.9" class="st6" width="24.2" height="24.2"/>
					</g>
				</g>
			</g>
			<g id="Grupo_188-3" transform="translate(1480.018 269.186)">
				<rect id="Rectángulo_262-3" x="-4096.4" y="-86.9" class="st5" width="199.2" height="676"/>
				<rect id="Rectángulo_263-3" x="-4096.4" y="-86.9" class="st5" width="35.7" height="676"/>
				<g id="Grupo_187-5_1_" transform="translate(25.551 40.97)">
					<rect id="Rectángulo_264-3" x="-4096.4" y="-86.9" class="st6" width="148.1" height="24.5"/>
					<rect id="Rectángulo_265-3" x="-4096.4" y="-43.5" class="st6" width="148.1" height="24.5"/>
					<rect id="Rectángulo_266-3" x="-4096.4" y="0" class="st6" width="148.1" height="24.5"/>
					<rect id="Rectángulo_267-3" x="-4096.4" y="43.4" class="st6" width="148.1" height="24.5"/>
				</g>
			</g>
			<g id="Grupo_191-3" transform="translate(911.619 381.854)">
				<rect id="Rectángulo_268-3" x="-4096.4" y="-86.9" class="st5" width="305.2" height="563.3"/>
				<rect id="Rectángulo_269-3" x="-4096.4" y="-86.9" class="st5" width="48.4" height="563.3"/>
				<g id="Grupo_189-3" transform="translate(159.77 26.434)">
					<rect id="Rectángulo_270-3" x="-4096.4" y="-86.9" class="st6" width="128" height="20.5"/>
					<rect id="Rectángulo_271-3" x="-4096.4" y="-50.7" class="st6" width="128" height="20.5"/>
					<rect id="Rectángulo_272-3" x="-4096.4" y="-14.4" class="st6" width="128" height="20.5"/>
					<rect id="Rectángulo_273-3" x="-4096.4" y="21.9" class="st6" width="128" height="20.5"/>
				</g>
				<g id="Grupo_190-3" transform="translate(17.377 26.434)">
					<rect id="Rectángulo_274-3" x="-4096.4" y="-86.9" class="st6" width="128" height="20.5"/>
					<rect id="Rectángulo_275-3" x="-4096.4" y="-50.7" class="st6" width="128" height="20.5"/>
					<rect id="Rectángulo_276-3" x="-4096.4" y="-14.4" class="st6" width="128" height="20.5"/>
					<rect id="Rectángulo_277-3" x="-4096.4" y="21.9" class="st6" width="128" height="20.5"/>
				</g>
			</g>
			<path id="Trazado_152-3" class="st7" d="M-4096.4,709c0,0,82.4,78.7,176.1,83.8s156-117.3,269.8-112.3
				c113.8,5,140.6,119,304.8,130.7s286.8-137.4,484.4-124s283,154.1,467.3,132.4s219.2-62,219.2-62v100.6l-1921.7-0.5L-4096.4,709z"
				/>
			<g id="Grupo_193-3" transform="translate(237.539 155.288)">
				<rect id="Rectángulo_278-3" x="-4096.4" y="-86.9" class="st8" width="195.6" height="789.8"/>
				<rect id="Rectángulo_279-3" x="-4096.4" y="-83" class="st8" width="53.5" height="789.8"/>
				<g id="Grupo_192-3" transform="translate(23.169 25.386)">
					<rect id="Rectángulo_280-3" x="-4096.4" y="-86.9" class="st9" width="149.2" height="24.2"/>
					<rect id="Rectángulo_281-3" x="-4096.4" y="-44.1" class="st9" width="149.2" height="24.2"/>
					<rect id="Rectángulo_282-3" x="-4096.4" y="-1.2" class="st9" width="149.2" height="24.2"/>
					<rect id="Rectángulo_283-3" x="-4096.4" y="41.7" class="st9" width="149.2" height="24.2"/>
				</g>
			</g>
			<g id="Grupo_207-3" transform="translate(1235.223 -80.363)">
				<rect id="Rectángulo_284-5" x="-4096.4" y="-86.9" class="st8" width="228.8" height="1025.5"/>
				<rect id="Rectángulo_285-5" x="-4096.4" y="-86.9" class="st8" width="51.2" height="1025.5"/>
				<g id="Grupo_206-3" transform="translate(28.695 25.141)">
					<g id="Grupo_194-3">
						<rect id="Rectángulo_286-3" x="-4096.4" y="-86.9" class="st9" width="24.2" height="24.2"/>
						<rect id="Rectángulo_287-3" x="-4058" y="-86.9" class="st9" width="24.2" height="24.2"/>
						<rect id="Rectángulo_288-3" x="-4019.7" y="-86.9" class="st9" width="24.2" height="24.2"/>
						<rect id="Rectángulo_289-3" x="-3982.8" y="-86.9" class="st9" width="24.2" height="24.2"/>
						<rect id="Rectángulo_290-3" x="-3946" y="-86.9" class="st9" width="24.2" height="24.2"/>
					</g>
					<g id="Grupo_195-3" transform="translate(0 42.89)">
						<rect id="Rectángulo_291-3" x="-4096.4" y="-86.9" class="st9" width="24.2" height="24.2"/>
						<rect id="Rectángulo_292-3" x="-4058" y="-86.9" class="st9" width="24.2" height="24.2"/>
						<rect id="Rectángulo_293-3" x="-4019.7" y="-86.9" class="st9" width="24.2" height="24.2"/>
						<rect id="Rectángulo_294-3" x="-3982.8" y="-86.9" class="st9" width="24.2" height="24.2"/>
						<rect id="Rectángulo_295-3" x="-3946" y="-86.9" class="st9" width="24.2" height="24.2"/>
					</g>
					<g id="Grupo_196-3" transform="translate(0 85.78)">
						<rect id="Rectángulo_296-3" x="-4096.4" y="-86.9" class="st9" width="24.2" height="24.2"/>
						<rect id="Rectángulo_297-3" x="-4058" y="-86.9" class="st9" width="24.2" height="24.2"/>
						<rect id="Rectángulo_298-3" x="-4019.7" y="-86.9" class="st9" width="24.2" height="24.2"/>
						<rect id="Rectángulo_299-3" x="-3982.8" y="-86.9" class="st9" width="24.2" height="24.2"/>
						<rect id="Rectángulo_300-3" x="-3946" y="-86.9" class="st9" width="24.2" height="24.2"/>
					</g>
					<g id="Grupo_197-3" transform="translate(0 128.671)">
						<rect id="Rectángulo_301-3" x="-4096.4" y="-86.9" class="st9" width="24.2" height="24.2"/>
						<rect id="Rectángulo_302-3" x="-4058" y="-86.9" class="st9" width="24.2" height="24.2"/>
						<rect id="Rectángulo_303-3" x="-4019.7" y="-86.9" class="st9" width="24.2" height="24.2"/>
						<rect id="Rectángulo_304-3" x="-3982.8" y="-86.9" class="st9" width="24.2" height="24.2"/>
						<rect id="Rectángulo_305-3" x="-3946" y="-86.9" class="st9" width="24.2" height="24.2"/>
					</g>
					<g id="Grupo_198-3" transform="translate(0 171.561)">
						<rect id="Rectángulo_306-3" x="-4096.4" y="-86.9" class="st9" width="24.2" height="24.2"/>
						<rect id="Rectángulo_307-3" x="-4058" y="-86.9" class="st9" width="24.2" height="24.2"/>
						<rect id="Rectángulo_308-3" x="-4019.7" y="-86.9" class="st9" width="24.2" height="24.2"/>
						<rect id="Rectángulo_309-3" x="-3982.8" y="-86.9" class="st9" width="24.2" height="24.2"/>
						<rect id="Rectángulo_310-3" x="-3946" y="-86.9" class="st9" width="24.2" height="24.2"/>
					</g>
					<g id="Grupo_199-3" transform="translate(0 214.451)">
						<rect id="Rectángulo_311-3" x="-4096.4" y="-86.9" class="st9" width="24.2" height="24.2"/>
						<rect id="Rectángulo_312-3" x="-4058" y="-86.9" class="st9" width="24.2" height="24.2"/>
						<rect id="Rectángulo_313-3" x="-4019.7" y="-86.9" class="st9" width="24.2" height="24.2"/>
						<rect id="Rectángulo_314-3" x="-3982.8" y="-86.9" class="st9" width="24.2" height="24.2"/>
						<rect id="Rectángulo_315-3" x="-3946" y="-86.9" class="st9" width="24.2" height="24.2"/>
					</g>
					<g id="Grupo_200-3" transform="translate(1.551 257.341)">
						<rect id="Rectángulo_316-3" x="-4096.4" y="-86.9" class="st9" width="24.2" height="24.2"/>
						<rect id="Rectángulo_317-3" x="-4058" y="-86.9" class="st9" width="24.2" height="24.2"/>
						<rect id="Rectángulo_318-3" x="-4019.7" y="-86.9" class="st9" width="24.2" height="24.2"/>
						
							<radialGradient id="Rectángulo_319-3_1_" cx="-4975.71" cy="576.0006" r="0.5" gradientTransform="matrix(24.176 0 0 -24.176 116322.0781 13850.5381)" gradientUnits="userSpaceOnUse">
							<stop  offset="0.475" style="stop-color:#71AD47"/>
							<stop  offset="1" style="stop-color:#319771"/>
						</radialGradient>
						<rect id="Rectángulo_319-3" x="-3982.8" y="-86.9" class="st10" width="24.2" height="24.2"/>
						<rect id="Rectángulo_320-3" x="-3946" y="-86.9" class="st9" width="24.2" height="24.2"/>
					</g>
					<g id="Grupo_201-3" transform="translate(0 300.231)">
						<rect id="Rectángulo_321-3" x="-4096.4" y="-86.9" class="st9" width="24.2" height="24.2"/>
						<rect id="Rectángulo_322-3" x="-4058" y="-86.9" class="st9" width="24.2" height="24.2"/>
						<rect id="Rectángulo_323-3" x="-4019.7" y="-86.9" class="st9" width="24.2" height="24.2"/>
						<rect id="Rectángulo_324-3" x="-3982.8" y="-86.9" class="st9" width="24.2" height="24.2"/>
						<rect id="Rectángulo_325-3" x="-3946" y="-86.9" class="st9" width="24.2" height="24.2"/>
					</g>
					<g id="Grupo_202-3" transform="translate(0 343.121)">
						<rect id="Rectángulo_326-3" x="-4096.4" y="-86.9" class="st9" width="24.2" height="24.2"/>
						<rect id="Rectángulo_327-3" x="-4058" y="-86.9" class="st9" width="24.2" height="24.2"/>
						<rect id="Rectángulo_328-3" x="-4019.7" y="-86.9" class="st9" width="24.2" height="24.2"/>
						<rect id="Rectángulo_329-3" x="-3982.8" y="-86.9" class="st9" width="24.2" height="24.2"/>
						<rect id="Rectángulo_330-3" x="-3946" y="-86.9" class="st9" width="24.2" height="24.2"/>
					</g>
					<g id="Grupo_203-3" transform="translate(0 386.012)">
						<rect id="Rectángulo_331-3" x="-4096.4" y="-86.9" class="st9" width="24.2" height="24.2"/>
						<rect id="Rectángulo_332-3" x="-4058" y="-86.9" class="st9" width="24.2" height="24.2"/>
						<rect id="Rectángulo_333-3" x="-4019.7" y="-86.9" class="st9" width="24.2" height="24.2"/>
						<rect id="Rectángulo_334-3" x="-3982.8" y="-86.9" class="st9" width="24.2" height="24.2"/>
						<rect id="Rectángulo_335-3" x="-3946" y="-86.9" class="st9" width="24.2" height="24.2"/>
					</g>
					<g id="Grupo_204-3" transform="translate(0 428.902)">
						<rect id="Rectángulo_336-3" x="-4096.4" y="-86.9" class="st9" width="24.2" height="24.2"/>
						<rect id="Rectángulo_337-3" x="-4058" y="-86.9" class="st9" width="24.2" height="24.2"/>
						<rect id="Rectángulo_338-3" x="-4019.7" y="-86.9" class="st9" width="24.2" height="24.2"/>
						<rect id="Rectángulo_339-3" x="-3982.8" y="-86.9" class="st9" width="24.2" height="24.2"/>
						<rect id="Rectángulo_340-3" x="-3946" y="-86.9" class="st9" width="24.2" height="24.2"/>
					</g>
					<g id="Grupo_205-3" transform="translate(0 471.792)">
						<rect id="Rectángulo_341-3" x="-4096.4" y="-86.9" class="st9" width="24.2" height="24.2"/>
						<rect id="Rectángulo_342-3" x="-4058" y="-86.9" class="st9" width="24.2" height="24.2"/>
						<rect id="Rectángulo_343-3" x="-4019.7" y="-86.9" class="st9" width="24.2" height="24.2"/>
						<rect id="Rectángulo_344-3" x="-3982.8" y="-86.9" class="st9" width="24.2" height="24.2"/>
						<rect id="Rectángulo_345-3" x="-3946" y="-86.9" class="st9" width="24.2" height="24.2"/>
					</g>
				</g>
			</g>
			<rect id="Rectángulo_346-3" x="-4096.4" y="857.7" class="st11" width="1920" height="136.7"/>
		</g>
	</g>
</g>
</svg>
