<svg id="Capa_1" data-name="Capa 1" xmlns="http://www.w3.org/2000/svg" xmlns:xlink="http://www.w3.org/1999/xlink" viewBox="0 0 46.76 46.68"><defs><style>.cls-1{fill:url(#Degradado_sin_nombre_2);}.cls-2{fill:url(#Degradado_sin_nombre_2-2);}.cls-3{fill:url(#Degradado_sin_nombre_2-3);}.cls-4,.cls-5{isolation:isolate;}.cls-5{font-size:8px;fill:#2e5b84;font-family:Montserrat-Bold, Montserrat;font-weight:700;}.cls-6{letter-spacing:-0.02em;}</style><linearGradient id="Degradado_sin_nombre_2" x1="-111.83" y1="1684.08" x2="-111.83" y2="1683.08" gradientTransform="matrix(5.09, 0, 0, -23.89, 596.72, 40243.82)" gradientUnits="userSpaceOnUse"><stop offset="0" stop-color="#2ea684"/><stop offset="1" stop-color="#2e5b84"/></linearGradient><linearGradient id="Degradado_sin_nombre_2-2" x1="-111.83" y1="1684.08" x2="-111.83" y2="1683.08" gradientTransform="matrix(5.09, 0, 0, -23.89, 601.99, 40243.82)" xlink:href="#Degradado_sin_nombre_2"/><linearGradient id="Degradado_sin_nombre_2-3" x1="-91.83" y1="1686.31" x2="-91.83" y2="1685.31" gradientTransform="matrix(12.09, 0, 0, -21.97, 1127.81, 37058.06)" xlink:href="#Degradado_sin_nombre_2"/></defs><title>icono</title><g id="Grupo_313" data-name="Grupo 313"><g id="Grupo_79" data-name="Grupo 79"><g id="Grupo_78" data-name="Grupo 78"><path id="Trazado_12" data-name="Trazado 12" class="cls-1" d="M28.58,6.69H26.66A1.48,1.48,0,0,0,25.08,8V30.58h5.09V8A1.49,1.49,0,0,0,28.58,6.69Z"/><path id="Trazado_13" data-name="Trazado 13" class="cls-2" d="M33.85,6.69H31.93A1.48,1.48,0,0,0,30.35,8V30.58h5.09V8A1.49,1.49,0,0,0,33.85,6.69Z"/><path id="Trazado_14" data-name="Trazado 14" class="cls-3" d="M22.69,9.1,21,8.67a1.57,1.57,0,0,0-1.86.8L13,25.74l-.41,1.12-1,2.59,4.57,1.13,1-2.6.41-1.11,6.09-16.28a1.18,1.18,0,0,0-.82-1.46A1,1,0,0,0,22.69,9.1Z"/></g></g><g id="Retos"><g id="Biblioteca" class="cls-4"><text class="cls-5" transform="translate(2.54 40.3)">Biblio<tspan class="cls-6" x="24.1" y="0">t</tspan><tspan x="27.45" y="0">eca</tspan></text></g></g></g></svg>