<svg id="Capa_1" data-name="Capa 1" xmlns="http://www.w3.org/2000/svg" viewBox="0 0 52.1 46.68"><defs><style>.cls-1,.cls-2{isolation:isolate;}.cls-2{font-size:8px;font-family:Montserrat-Bold, Montserrat;font-weight:700;}.cls-2,.cls-3{fill:#2e5b84;}.cls-4{fill:none;stroke:#2e5b84;}</style></defs><title>icono</title><g id="Grupo_314" data-name="Grupo 314"><g id="Grupo_29" data-name="Grupo 29"><g id="Grupo_77" data-name="Grupo 77"><g id="Usuario"><g id="Minijuegos" class="cls-1"><text class="cls-2" transform="translate(3.37 40.86) rotate(-0.19)">Minijuegos</text></g></g><path id="Trazado_77" data-name="Trazado 77" class="cls-3" d="M18,35.22l0,0,0,0Z"/></g></g><path id="Trazado_201" data-name="Trazado 201" class="cls-4" d="M39,21.67c-.92-3-2.52-5.1-4.52-5.87a3.85,3.85,0,0,0-3.72.25,5.22,5.22,0,0,1-4.11,1.27c-3-.05-2.62-.4-3.91-1a7.07,7.07,0,0,0-2.62-.88c-1.17,0-4.12.53-6,5.68s-1.61,8.49.72,9.43c2.1.85,4.32-1,6.22-2.83S23.92,26,24,26l2.55,0c.68,0,1.4,0,2,0a4.78,4.78,0,0,1,2.14.66,4.78,4.78,0,0,1,.67.6,10.33,10.33,0,0,0,3.37,3,3.72,3.72,0,0,0,3.32.36C39.61,29.89,40.94,28.22,39,21.67Zm-16,.45a.38.38,0,0,1-.38.38H20.92a.38.38,0,0,0-.38.38h0v1.61a.39.39,0,0,1-.39.37H19a.39.39,0,0,1-.38-.39h0v-1.6a.4.4,0,0,0-.38-.39H16.68a.38.38,0,0,1-.37-.39h0V21a.38.38,0,0,1,.38-.38H18.3a.38.38,0,0,0,.38-.38V18.55a.39.39,0,0,1,.38-.38h1.11a.38.38,0,0,1,.38.38v1.68a.38.38,0,0,0,.37.38h1.69A.39.39,0,0,1,23,21Zm10.17.59a1.24,1.24,0,0,1-.88,1.49,1.22,1.22,0,1,1-.61-2.36h0a1.21,1.21,0,0,1,1.48.87Zm2.29-2.77a1.22,1.22,0,0,1-.88,1.49A1.22,1.22,0,0,1,34,19.07h0a1.22,1.22,0,0,1,1.49.87Z"/></g></svg>