<svg id="Capa_1" data-name="Capa 1" xmlns="http://www.w3.org/2000/svg" viewBox="0 0 45.09 46.68"><defs><style>.cls-1,.cls-2{isolation:isolate;}.cls-2{font-size:8px;fill:#2e5b84;font-family:Montserrat-Bold, Montserrat;font-weight:700;}.cls-3{letter-spacing:-0.02em;}.cls-4{letter-spacing:0em;}.cls-5{letter-spacing:0em;}.cls-6{letter-spacing:0em;}.cls-7{fill:none;stroke:#2e5b84;}</style></defs><title>icono</title><g id="Grupo_312" data-name="Grupo 312"><g id="Grupo_28" data-name="Grupo 28"><g id="Grupo_76" data-name="Grupo 76"><g id="Historia"><g id="Historia-2" class="cls-1"><text class="cls-2" transform="translate(6.7 41.06)">His<tspan class="cls-3" x="13.12" y="0">t</tspan><tspan class="cls-4" x="16.46" y="0">o</tspan><tspan class="cls-5" x="21.7" y="0">r</tspan><tspan class="cls-6" x="25.12" y="0">ia</tspan></text></g></g></g></g><g id="Grupo_149" data-name="Grupo 149"><g id="Grupo_348" data-name="Grupo 348"><g id="Grupo_37" data-name="Grupo 37"><path id="Trazado_81" data-name="Trazado 81" class="cls-7" d="M33.88,15.29,23.29,6.88a1,1,0,0,0-1.17,0L11.53,15.29a.94.94,0,0,0,.91,1.62V29.08a1.6,1.6,0,0,0,1.6,1.6H31.37a1.6,1.6,0,0,0,1.6-1.6V16.9a.94.94,0,0,0,1.2-.58,1,1,0,0,0-.29-1Z"/></g><path id="Trazado_22" data-name="Trazado 22" class="cls-7" d="M25.14,20l-3.9-2.25a1,1,0,0,0-1.36.37,1,1,0,0,0-.13.49v4.5a1,1,0,0,0,1.49.86l3.9-2.25a1,1,0,0,0,.36-1.35A1.06,1.06,0,0,0,25.14,20Z"/></g></g></g></svg>