<svg id="Capa_1" data-name="Capa 1" xmlns="http://www.w3.org/2000/svg" xmlns:xlink="http://www.w3.org/1999/xlink" viewBox="0 0 52.13 46.68"><defs><style>.cls-1,.cls-2{isolation:isolate;}.cls-2{font-size:8px;font-family:Montserrat-Bold, Montserrat;font-weight:700;}.cls-2,.cls-3{fill:#2e5b84;}.cls-4{fill:url(#Degradado_sin_nombre_7);}</style><linearGradient id="Degradado_sin_nombre_7" x1="-150.48" y1="1698.13" x2="-150.49" y2="1697.02" gradientTransform="matrix(27.14, 0, 0, -15.49, 4110.3, 26310.04)" gradientUnits="userSpaceOnUse"><stop offset="0" stop-color="#2ea684"/><stop offset="1" stop-color="#1a4b74"/></linearGradient></defs><title>icono</title><g id="Grupo_314" data-name="Grupo 314"><g id="Grupo_29" data-name="Grupo 29"><g id="Grupo_77" data-name="Grupo 77"><g id="Usuario"><g id="Minijuegos" class="cls-1"><text class="cls-2" transform="translate(3.37 40.3) rotate(-0.19)">Minijuegos</text></g></g><path id="Trazado_77" data-name="Trazado 77" class="cls-3" d="M18,34.65l0,0,0,0Z"/></g></g><path id="Trazado_201" data-name="Trazado 201" class="cls-4" d="M39,21.1c-.92-3-2.52-5.1-4.52-5.87a3.88,3.88,0,0,0-3.72.25,5.18,5.18,0,0,1-4.11,1.27c-3-.05-2.62-.4-3.91-1a6.91,6.91,0,0,0-2.62-.89c-1.17,0-4.12.54-6,5.68S12.44,29,14.77,30c2.1.86,4.32-.95,6.22-2.82s2.93-1.72,3-1.72l2.55,0c.68,0,1.4,0,2,.05a4.65,4.65,0,0,1,2.14.65,4.78,4.78,0,0,1,.67.6,10.22,10.22,0,0,0,3.37,3,3.72,3.72,0,0,0,3.32.36C39.61,29.33,40.94,27.66,39,21.1Zm-16,.45a.37.37,0,0,1-.38.38H20.92a.38.38,0,0,0-.38.38h0v1.61a.4.4,0,0,1-.39.38H19a.38.38,0,0,1-.38-.38h0V22.29a.38.38,0,0,0-.38-.38H16.68a.37.37,0,0,1-.37-.38h0V20.41a.38.38,0,0,1,.38-.38H18.3a.38.38,0,0,0,.38-.38V18a.38.38,0,0,1,.38-.37h1.11a.39.39,0,0,1,.38.38v1.68a.39.39,0,0,0,.37.39h1.69a.37.37,0,0,1,.37.38Zm10.17.59a1.22,1.22,0,1,1-1.49-.87h0a1.21,1.21,0,0,1,1.48.87Zm2.29-2.76A1.22,1.22,0,1,1,34,18.5h0a1.23,1.23,0,0,1,1.49.88Z"/></g></svg>