<svg id="Capa_1" data-name="Capa 1" xmlns="http://www.w3.org/2000/svg" viewBox="0 0 48.11 46.68"><defs><style>.cls-1{fill:none;stroke:#2e5b84;stroke-miterlimit:10;}.cls-2,.cls-3{isolation:isolate;}.cls-3{font-size:8px;fill:#2e5b84;font-family:Montserrat-Bold, Montserrat;font-weight:700;}.cls-4{letter-spacing:-0.02em;}</style></defs><title>icono</title><g id="Grupo_313" data-name="Grupo 313"><g id="Grupo_79" data-name="Grupo 79"><g id="Grupo_78" data-name="Grupo 78"><path id="Trazado_12" data-name="Trazado 12" class="cls-1" d="M29,7.26H27.11a1.46,1.46,0,0,0-1.58,1.31V31.15h5.08V8.57A1.46,1.46,0,0,0,29,7.26Z"/><path id="Trazado_13" data-name="Trazado 13" class="cls-1" d="M34.29,7.26H32.38a1.47,1.47,0,0,0-1.59,1.31V31.15h5.09V8.57A1.46,1.46,0,0,0,34.29,7.26Z"/><path id="Trazado_14" data-name="Trazado 14" class="cls-1" d="M23.13,9.66l-1.72-.42a1.58,1.58,0,0,0-1.86.8L13.47,26.31l-.42,1.11-1,2.6,4.57,1.12,1-2.6L18,27.43l6.09-16.27A1.19,1.19,0,0,0,23.3,9.7Z"/></g></g><g id="Retos"><g id="Biblioteca" class="cls-2"><text class="cls-3" transform="translate(2.98 40.86)">Biblio<tspan class="cls-4" x="24.1" y="0">t</tspan><tspan x="27.45" y="0">eca</tspan></text></g></g></g></svg>