<svg id="Capa_1" data-name="Capa 1" xmlns="http://www.w3.org/2000/svg" xmlns:xlink="http://www.w3.org/1999/xlink" viewBox="0 0 45.09 46.68"><defs><style>.cls-1,.cls-2{isolation:isolate;}.cls-2{font-size:8px;fill:#2e5b84;font-family:Montserrat-Bold, Montserrat;font-weight:700;}.cls-3{letter-spacing:-0.02em;}.cls-4{letter-spacing:0em;}.cls-5{letter-spacing:0em;}.cls-6{letter-spacing:0em;}.cls-7{fill:url(#Degradado_sin_nombre_2);}.cls-8{fill:#fff;}</style><linearGradient id="Degradado_sin_nombre_2" x1="-20.92" y1="1683.97" x2="-20.92" y2="1682.97" gradientTransform="matrix(23.04, 0, 0, -24, 504.27, 40429.39)" gradientUnits="userSpaceOnUse"><stop offset="0" stop-color="#2ea684"/><stop offset="1" stop-color="#2e5b84"/></linearGradient></defs><title>icono</title><g id="Grupo_312" data-name="Grupo 312"><g id="Grupo_28" data-name="Grupo 28"><g id="Grupo_76" data-name="Grupo 76"><g id="Historia"><g id="Historia-2" class="cls-1"><text class="cls-2" transform="translate(6.26 40.3)">His<tspan class="cls-3" x="13.12" y="0">t</tspan><tspan class="cls-4" x="16.46" y="0">o</tspan><tspan class="cls-5" x="21.7" y="0">r</tspan><tspan class="cls-6" x="25.12" y="0">ia</tspan></text></g></g></g></g><g id="Grupo_149" data-name="Grupo 149"><g id="Grupo_348" data-name="Grupo 348"><g id="Grupo_37" data-name="Grupo 37"><path id="Trazado_81" data-name="Trazado 81" class="cls-7" d="M33.44,14.53,22.85,6.12a1,1,0,0,0-1.17,0L11.09,14.53A.95.95,0,0,0,12,16.15V28.32a1.59,1.59,0,0,0,1.6,1.6H30.93a1.59,1.59,0,0,0,1.6-1.6V16.14a.94.94,0,0,0,1.2-.58.93.93,0,0,0-.28-1Z"/></g><path id="Trazado_22" data-name="Trazado 22" class="cls-8" d="M24.7,19.22,20.8,17a1,1,0,0,0-1.35.37,1,1,0,0,0-.14.49v4.5a1,1,0,0,0,1,1,1,1,0,0,0,.5-.13l3.9-2.25a1,1,0,0,0,0-1.72Z"/></g></g></g></svg>