<?xml version="1.0" encoding="utf-8"?>
<!-- Generator: Adobe Illustrator 24.0.2, SVG Export Plug-In . SVG Version: 6.00 Build 0)  -->
<svg version="1.1" id="Capa_1" focusable="false" xmlns="http://www.w3.org/2000/svg" xmlns:xlink="http://www.w3.org/1999/xlink"
	 x="0px" y="0px" viewBox="0 0 448 512" style="enable-background:new 0 0 448 512;" xml:space="preserve">
<style type="text/css">
	.st0{fill:#2EA684;}
</style>
<path class="st0" d="M224,202.7c-29.5,0-53.3,23.9-53.3,53.4s23.9,53.3,53.4,53.3c29.5,0,53.3-23.9,53.3-53.3
	C277.3,226.5,253.5,202.7,224,202.7z"/>
<path class="st0" d="M448,256c0-123.7-100.3-224-224-224S0,132.3,0,256s100.3,224,224,224S448,379.7,448,256z M290,414.8
	c-26.4,1.5-105.6,1.5-132,0c-25.6-1.3-48.3-7.1-67-25.8c-18.7-18.7-24.6-41.4-25.9-67c-1.5-26.4-1.5-105.6,0-132
	c1.3-25.6,7.1-48.3,25.9-67c18.8-18.7,41.5-24.6,67-25.8c26.4-1.5,105.6-1.5,132,0c25.6,1.3,48.3,7.2,67,25.9
	c18.7,18.7,24.6,41.4,25.8,67c1.5,26.3,1.5,105.4,0,131.9c-1.3,25.6-7.1,48.3-25.8,67C338.3,407.7,315.6,413.6,290,414.8z"/>
<path class="st0" d="M348.8,161.7L348.8,161.7c-5.5-13.9-16.5-24.9-30.5-30.4c-21-8.3-71-6.4-94.3-6.4s-73.3-1.9-94.3,6.4
	c-13.9,5.5-24.9,16.5-30.4,30.4c-8.3,21-6.4,71.1-6.4,94.3c0,23.3-1.8,73.3,6.5,94.3c5.5,13.9,16.5,24.9,30.4,30.4
	c21,8.3,71,6.4,94.3,6.4s73.2,1.9,94.3-6.4c13.9-5.5,24.9-16.5,30.4-30.4c8.4-21,6.4-71,6.4-94.3
	C355.2,232.7,357.1,182.7,348.8,161.7z M224.2,338c-0.1,0-0.1,0-0.2,0c-45.3,0-82-36.7-82-82s36.7-82,82-82s82,36.7,82,82
	C306.1,301.2,269.4,337.9,224.2,338z M328.5,170.6c0,10.5-8.5,19.1-19,19.2c0,0,0,0-0.1,0l0,0c-10.6,0-19.1-8.6-19.1-19.1
	c0-10.6,8.6-19.1,19.1-19.2C319.9,151.4,328.5,160,328.5,170.6C328.5,170.6,328.5,170.6,328.5,170.6z"/>
</svg>
