<svg xmlns="http://www.w3.org/2000/svg" xmlns:xlink="http://www.w3.org/1999/xlink" viewBox="0 0 230 59.97"><defs><style>.cls-1{fill:url(#radial-gradient);}.cls-2{fill:#6fd95f;}.cls-3{fill:#2e5b84;}.cls-4{fill:url(#radial-gradient-2);}</style><radialGradient id="radial-gradient" cx="110.89" cy="36.03" r="5.19" gradientTransform="matrix(1, 0, 0, -1, 0, 49.94)" gradientUnits="userSpaceOnUse"><stop offset="0.24" stop-color="#2ea684"/><stop offset="1" stop-color="#2e5b84"/></radialGradient><radialGradient id="radial-gradient-2" cx="111.15" cy="20.79" r="8.91" gradientTransform="matrix(1, 0, 0, -1, 0, 49.94)" gradientUnits="userSpaceOnUse"><stop offset="0.47" stop-color="#6bd05c"/><stop offset="1" stop-color="#2ea684"/></radialGradient></defs><title>logore</title><g id="Capa_1" data-name="Capa 1"><path id="Trazado_3" data-name="Trazado 3" class="cls-1" d="M115.28,17.47a4,4,0,0,1-8,.29c0-2.2,2.25-5.93,3.78-8.46,1.53,2.39,4.15,6,4.25,8.17"/><path id="Trazado_8" data-name="Trazado 8" class="cls-2" d="M111.6,20.15a1.42,1.42,0,0,0-.33-.77,2.83,2.83,0,0,0-.72-.52,2.31,2.31,0,0,0-.81-.29c-.15-.05-.29-.05-.43-.1a.79.79,0,0,0-.43,0,2,2,0,0,1,.9,0,2.79,2.79,0,0,1,.86.28,2.17,2.17,0,0,1,.72.58,1.6,1.6,0,0,1,.24.38.78.78,0,0,1,0,.48"/><path id="Trazado_6" data-name="Trazado 6" class="cls-2" d="M111.7,18.52a1.27,1.27,0,0,1,.38-.52,1.87,1.87,0,0,1,.52-.34,2.81,2.81,0,0,1,.62-.19.92.92,0,0,1,.63.05,2.68,2.68,0,0,0-.63.05,4.37,4.37,0,0,0-1.09.52,1.75,1.75,0,0,0-.43.43"/><path id="Trazado_7" data-name="Trazado 7" class="cls-2" d="M111.6,16a2.68,2.68,0,0,0-.48-.53,2.94,2.94,0,0,0-.62-.38,4.21,4.21,0,0,0-.67-.19,3.44,3.44,0,0,0-.71,0,3.35,3.35,0,0,1,.71-.05,3.87,3.87,0,0,1,.72.2,1.62,1.62,0,0,1,.62.43,1.07,1.07,0,0,1,.43.57"/><path id="Trazado_5" data-name="Trazado 5" class="cls-2" d="M111.5,14.84a1.92,1.92,0,0,1,.24-.52c.15-.14.24-.34.43-.43a3,3,0,0,1,1.1-.53l-.52.29a2.93,2.93,0,0,0-.48.33c-.14.15-.29.24-.43.39a3.82,3.82,0,0,1-.34.47"/><path class="cls-2" d="M111.79,19.86c0-1.29-.05-2.58-.09-3.82,0-.62-.1-1.29-.2-1.91,0-.34-.09-.62-.14-1a5.05,5.05,0,0,0-.24-.91,4.8,4.8,0,0,1,.19,1c0,.33,0,.62.1,1,0,.62,0,1.29.09,1.91,0,1.29,0,2.53,0,3.82s-.09,2.58-.14,3.82-.14,2.29-.24,3.49c.15,0,.29,0,.43-.1C111.7,24.68,111.79,22.3,111.79,19.86Z"/><ellipse class="cls-3" cx="111.07" cy="40.83" rx="8.98" ry="2.39"/><path class="cls-4" d="M112.41,22.87c-4.54-.57-8.69,2.91-9.36,7.79A8.29,8.29,0,0,0,103,33c.24,3.44,1.29,8.51,2.1,8.75.58.14,1.77-1.72,2.44-2.82a7.92,7.92,0,0,0,2.53.71,9.48,9.48,0,0,0,4.35-.47c.57,1.14,1.43,2.62,1.91,2.53.86-.15,2.44-5.26,3-8.65h0c0-.09,0-.19,0-.33h0C120.1,27.88,117,23.44,112.41,22.87Z"/><g id="Grupo_1" data-name="Grupo 1"><path id="Trazado_11" data-name="Trazado 11" class="cls-3" d="M108.54,29.89a.67.67,0,1,1-.67-.67h0a.72.72,0,0,1,.67.67h0"/><path id="Trazado_12" data-name="Trazado 12" class="cls-3" d="M116.33,29.46a.67.67,0,1,1-.67-.67h0a.66.66,0,0,1,.67.67h0"/><path id="Trazado_13" data-name="Trazado 13" class="cls-3" d="M110.69,32.9a1.54,1.54,0,0,0,2.2.19l.19-.19c.1-.14-.09-.29-.19-.19a1.3,1.3,0,0,1-1.86.14h0a.24.24,0,0,0-.15-.09c0-.1-.28,0-.19.14"/><path id="Trazado_14" data-name="Trazado 14" class="cls-3" d="M107.06,27.93a.92.92,0,0,0-.76.24,1.13,1.13,0,0,0-.43.77s.09,0,.09,0a1,1,0,0,1,.39-.67A1.09,1.09,0,0,1,107,28c.1,0,.15-.1,0-.1"/><path id="Trazado_15" data-name="Trazado 15" class="cls-3" d="M116.23,27.65a.89.89,0,0,1,.67.23.78.78,0,0,1,.38.67c0,.05.1.05.1,0a1.25,1.25,0,0,0-.43-.76.88.88,0,0,0-.76-.24s0,.14,0,.1"/></g><path class="cls-3" d="M167.34,41.07c0,.24-.14.38-.42.48a8.18,8.18,0,0,1-1.2.09c-.67,0-1.24,0-1.67-.09a3.87,3.87,0,0,1-1.2-.34,2.35,2.35,0,0,1-.81-.52,1.81,1.81,0,0,1-.47-.72l-2.2-4.59c-.62,1-1.2,1.87-1.82,2.82s-1.24,2-1.91,3a3.42,3.42,0,0,1-.38.34,1,1,0,0,1-.67.24,1.4,1.4,0,0,1-.81-.39,8.15,8.15,0,0,1-.86-.95,9.27,9.27,0,0,1-.67-1.2,2.7,2.7,0,0,1-.24-1.1,2.38,2.38,0,0,1,.57-1.33A10.85,10.85,0,0,1,154,35.24c.57-.52,1.19-1.1,1.86-1.62a20.23,20.23,0,0,1,1.91-1.39c-.72-1.19-1.38-2.34-2-3.39s-1.15-2-1.63-2.72-.81-1.39-1-1.87a5.75,5.75,0,0,1-.38-.81c0-.09.14-.19.43-.24a4.5,4.5,0,0,1,1.29-.14,10,10,0,0,1,1.77.14,5.07,5.07,0,0,1,1.33.43,2.63,2.63,0,0,1,1,.82,5.49,5.49,0,0,1,.76,1.29L160.71,29c.38-.47.66-.9.95-1.33l.86-1.29c.29-.43.62-1,1-1.48s.76-1.1,1.24-1.82a.83.83,0,0,1,.67-.33,1.41,1.41,0,0,1,1,.43,4.14,4.14,0,0,1,.86,1,6.78,6.78,0,0,1,.62,1.19,3.21,3.21,0,0,1,.24,1,2,2,0,0,1-.62,1.24c-.43.53-.91,1-1.48,1.58s-1.19,1.05-1.86,1.57a13,13,0,0,1-1.77,1.24,12.42,12.42,0,0,0,.81,1.44c.34.52.67,1.1,1.05,1.72s.77,1.19,1.15,1.81.72,1.15,1,1.67.57,1,.76,1.39C167.25,40.54,167.34,40.88,167.34,41.07Z"/><path class="cls-3" d="M144,22.82a9.14,9.14,0,0,1,3.25.53,4.9,4.9,0,0,1,2.2,1.57,6.15,6.15,0,0,1,1.24,2.49,14.2,14.2,0,0,1,.38,3.34A18.09,18.09,0,0,1,151,33a16.9,16.9,0,0,1-.52,2.48,9.71,9.71,0,0,1-1.06,2.39,8.54,8.54,0,0,1-1.67,2.05,9,9,0,0,1-2.48,1.44,10.45,10.45,0,0,1-3.39.52,8.74,8.74,0,0,1-3.59-.67A5.66,5.66,0,0,1,136,39.44a6.64,6.64,0,0,1-1.19-2.62,14.09,14.09,0,0,1-.34-3.25,16,16,0,0,1,.48-4,10.27,10.27,0,0,1,1.58-3.43,8,8,0,0,1,2.91-2.44A10.72,10.72,0,0,1,144,22.82Zm-.52,4a3.21,3.21,0,0,0-1.58.34,4,4,0,0,0-1.1.86,5.35,5.35,0,0,0-.71,1.24,6.42,6.42,0,0,0-.43,1.39A6.92,6.92,0,0,0,139.5,32a10.3,10.3,0,0,0-.05,1.19,6.19,6.19,0,0,0,.81,3.49,2.66,2.66,0,0,0,2.25,1.1,2.58,2.58,0,0,0,2-.76,5.46,5.46,0,0,0,1.2-1.87,8.68,8.68,0,0,0,.57-2.24,15.45,15.45,0,0,0,.14-2,5.87,5.87,0,0,0-.66-3A2.42,2.42,0,0,0,143.51,26.83Z"/><path class="cls-3" d="M129.56,26.74l-1,14.47c0,.24-.1.38-.29.38h-1.43a3.16,3.16,0,0,1-2.1-.57,2,2,0,0,1-.62-1.62c0-.24,0-.67,0-1.2s0-1.14.1-1.81.09-1.48.19-2.3.14-1.67.19-2.48.14-1.67.19-2.53.1-1.63.19-2.34h-4.15c-.19,0-.29-.15-.29-.38l.1-1.48a3.08,3.08,0,0,1,.09-.67,1.1,1.1,0,0,1,.29-.58,1.52,1.52,0,0,1,.52-.43,2.19,2.19,0,0,1,.82-.14h11.65a.67.67,0,0,1,.29.1.28.28,0,0,1,.14.28L134.39,25a2.3,2.3,0,0,1-.43,1.24c-.24.34-.77.48-1.53.48h-2.87Z"/><path class="cls-3" d="M89.48,41.59a3.09,3.09,0,0,1-2.1-.57,2.16,2.16,0,0,1-.62-1.72,9.75,9.75,0,0,1,0-1c0-.48,0-1.1.09-1.77s.1-1.43.2-2.24.14-1.63.19-2.49c.14-1.76.24-3.2.28-4.3s.1-1.95.15-2.57a10.86,10.86,0,0,1,.14-1.49c0-.23.14-.33.33-.33.53,0,1.1,0,1.68,0S91,23,91.49,22.92s1.05-.05,1.53-.05a11.14,11.14,0,0,1,1.24-.05,8.58,8.58,0,0,1,2.87.43,5,5,0,0,1,2,1.2,4.9,4.9,0,0,1,1.1,1.81,7.59,7.59,0,0,1,.34,2.39,8.18,8.18,0,0,1-.81,3.63,5.43,5.43,0,0,1-2.58,2.44l2.19,3.15c.39.57.72,1.05.91,1.38a2.32,2.32,0,0,1,.34.72,1.28,1.28,0,0,1-.24.53,3.23,3.23,0,0,1-.67.66,3.93,3.93,0,0,1-2.44.82,2.09,2.09,0,0,1-1.43-.53A5.59,5.59,0,0,1,94.69,40,8.85,8.85,0,0,1,93.88,38c-.19-.76-.48-1.57-.67-2.43a11.3,11.3,0,0,1-1.53-.19c-.05.76-.09,1.48-.14,2.19s-.1,1.34-.15,1.87,0,1-.09,1.33a4.36,4.36,0,0,0,0,.63.44.44,0,0,1-.09.28.47.47,0,0,1-.34.1H89.48Zm4.25-14.85a3.85,3.85,0,0,0-.71.05c-.24,0-.53,0-.81.09,0,.62-.1,1.34-.1,2.2S92,30.8,91.92,31.8A7.21,7.21,0,0,0,93.5,32a2.39,2.39,0,0,0,1.33-.33,2.53,2.53,0,0,0,.82-.77,2.38,2.38,0,0,0,.38-.95,6.87,6.87,0,0,0,.09-1,2,2,0,0,0-2.39-2.24Z"/><path class="cls-3" d="M76.44,41.59a3.18,3.18,0,0,1-2.1-.57,2,2,0,0,1-.62-1.62c0-.34,0-1,.1-1.77s.14-1.82.19-2.87.19-2.19.24-3.44.19-2.34.23-3.39.15-2,.2-2.77.09-1.34.09-1.62.14-.38.43-.38h9.22a.65.65,0,0,1,.29.09.3.3,0,0,1,.14.29l-.1,1.53a2.21,2.21,0,0,1-.43,1.24c-.23.33-.76.48-1.52.48H79.21L79,30.46H82.7a.67.67,0,0,1,.29.1.3.3,0,0,1,.14.29L83,32.37a2.29,2.29,0,0,1-.42,1.25c-.24.33-.77.47-1.53.47H78.83L78.54,38h5.74a.63.63,0,0,1,.28.1.29.29,0,0,1,.15.29l-.29,1.52A2.29,2.29,0,0,1,84,41.12c-.24.33-.76.47-1.53.47Z"/><path class="cls-3" d="M58.39,41.59c-.19,0-.29-.09-.29-.28l.1-1.39a3.23,3.23,0,0,1,.09-.57,1.07,1.07,0,0,1,.24-.57,14.12,14.12,0,0,1,1-1.77c.43-.62.91-1.39,1.53-2.29s1.29-2,2-3.3,1.72-2.82,2.77-4.68H60c-.14,0-.24,0-.24-.1s0-.14,0-.28l.09-1.48a3.1,3.1,0,0,1,.1-.67,1.63,1.63,0,0,1,.24-.58,1.31,1.31,0,0,1,.57-.43,2.8,2.8,0,0,1,1-.14h10a.72.72,0,0,1,.29.1.28.28,0,0,1,.14.28L72,24.83a2.42,2.42,0,0,1-.33,1.1l-.77,1.24c-.43.71-1,1.67-1.72,2.82l-2.34,3.77-2.58,4.16h6.64a.62.62,0,0,1,.29.09c.1.05.14.14.14.29l-.09,1.53a2.28,2.28,0,0,1-.43,1.24,1.85,1.85,0,0,1-1.53.48H58.39Z"/></g></svg>