<svg xmlns="http://www.w3.org/2000/svg" xmlns:xlink="http://www.w3.org/1999/xlink" viewBox="0 0 161.3 62.3"><defs><style>.cls-1{fill:url(#radial-gradient);}.cls-2{fill:#6fd95f;}.cls-3{fill:#2e5b84;}.cls-4{fill:url(#radial-gradient-2);}</style><radialGradient id="radial-gradient" cx="79.6" cy="34.01" r="6.76" gradientTransform="matrix(1, 0, 0, -1, 0, 49.94)" gradientUnits="userSpaceOnUse"><stop offset="0.24" stop-color="#2ea684"/><stop offset="1" stop-color="#2e5b84"/></radialGradient><radialGradient id="radial-gradient-2" cx="79.94" cy="14.15" r="11.62" gradientTransform="matrix(1, 0, 0, -1, 0, 49.94)" gradientUnits="userSpaceOnUse"><stop offset="0.47" stop-color="#6bd05c"/><stop offset="1" stop-color="#2ea684"/></radialGradient></defs><title>logo</title><g id="Capa_1" data-name="Capa 1"><path id="Trazado_3" data-name="Trazado 3" class="cls-1" d="M85.32,20.57A5.23,5.23,0,0,1,74.86,21c-.06-2.87,2.93-7.72,4.92-11,2,3.11,5.42,7.78,5.54,10.64"/><path id="Trazado_8" data-name="Trazado 8" class="cls-2" d="M80.53,24.06a1.91,1.91,0,0,0-.44-1,4,4,0,0,0-.93-.68A3,3,0,0,0,78.1,22c-.19-.07-.38-.07-.56-.13a.89.89,0,0,0-.56,0,2.62,2.62,0,0,1,1.18-.06,4.09,4.09,0,0,1,1.12.37,2.79,2.79,0,0,1,.94.75,2.72,2.72,0,0,1,.31.5,1.08,1.08,0,0,1,0,.62"/><path id="Trazado_6" data-name="Trazado 6" class="cls-2" d="M80.65,21.94a1.82,1.82,0,0,1,.5-.68,2.83,2.83,0,0,1,.68-.44,3.67,3.67,0,0,1,.81-.25,1.2,1.2,0,0,1,.81.07,3.69,3.69,0,0,0-.81.06,6,6,0,0,0-1.43.68,2.68,2.68,0,0,0-.56.56"/><path id="Trazado_7" data-name="Trazado 7" class="cls-2" d="M80.53,18.71A3.45,3.45,0,0,0,79.9,18a3.26,3.26,0,0,0-.81-.5,5.69,5.69,0,0,0-.87-.25,4.85,4.85,0,0,0-.93-.06,4.85,4.85,0,0,1,.93-.06,4.67,4.67,0,0,1,.94.25A2.32,2.32,0,0,1,80,18a1.39,1.39,0,0,1,.56.75"/><path id="Trazado_5" data-name="Trazado 5" class="cls-2" d="M80.4,17.15a2.42,2.42,0,0,1,.31-.69c.19-.18.32-.43.56-.56a3.83,3.83,0,0,1,1.44-.68c-.25.12-.44.25-.69.37a3.94,3.94,0,0,0-.62.44c-.19.18-.37.31-.56.5a5.54,5.54,0,0,1-.44.62"/><path class="cls-2" d="M80.78,23.69c0-1.68-.07-3.37-.13-5-.06-.81-.12-1.69-.25-2.5-.06-.43-.12-.8-.18-1.24a6.54,6.54,0,0,0-.32-1.18A6.64,6.64,0,0,1,80.15,15c.07.44.07.81.13,1.25.06.81.06,1.68.12,2.49.06,1.68,0,3.3,0,5s-.12,3.36-.18,5-.19,3-.32,4.55c.19-.07.38-.07.56-.13C80.65,30,80.78,26.86,80.78,23.69Z"/><ellipse class="cls-3" cx="79.84" cy="51.02" rx="11.71" ry="3.11"/><path class="cls-4" d="M81.59,27.61c-5.92-.75-11.34,3.8-12.21,10.15a10.18,10.18,0,0,0-.06,3.11C69.63,45.36,71,52,72.06,52.27c.75.18,2.3-2.24,3.17-3.68a10.61,10.61,0,0,0,3.3.94,12.21,12.21,0,0,0,5.67-.62c.75,1.49,1.87,3.42,2.49,3.3,1.12-.19,3.18-6.85,3.92-11.27h0c0-.13.07-.25.07-.44h0C91.61,34.15,87.5,28.36,81.59,27.61Z"/><g id="Grupo_1" data-name="Grupo 1"><path id="Trazado_11" data-name="Trazado 11" class="cls-3" d="M76.54,36.76a.87.87,0,1,1-.87-.87h0a.94.94,0,0,1,.87.87h0"/><path id="Trazado_12" data-name="Trazado 12" class="cls-3" d="M86.69,36.2a.87.87,0,1,1-.87-.87h0a.85.85,0,0,1,.87.87h0"/><path id="Trazado_13" data-name="Trazado 13" class="cls-3" d="M79.34,40.69a2,2,0,0,0,2.87.25l.25-.25c.12-.19-.13-.38-.25-.25a1.7,1.7,0,0,1-2.43.18h0c-.06-.06-.12-.12-.19-.12s-.37.06-.25.19"/><path id="Trazado_14" data-name="Trazado 14" class="cls-3" d="M74.61,34.21a1.2,1.2,0,0,0-1,.31,1.48,1.48,0,0,0-.57,1c0,.06.13.06.13,0a1.31,1.31,0,0,1,.5-.87,1.48,1.48,0,0,1,.87-.32c.12,0,.19-.12.06-.12"/><path id="Trazado_15" data-name="Trazado 15" class="cls-3" d="M86.57,33.84a1.16,1.16,0,0,1,.87.31,1,1,0,0,1,.5.87c0,.06.12.06.12,0a1.63,1.63,0,0,0-.56-1,1.15,1.15,0,0,0-1-.31s0,.19.07.13"/></g><path class="cls-3" d="M153.19,51.33c0,.32-.18.5-.56.63a9.43,9.43,0,0,1-1.55.12A20.44,20.44,0,0,1,148.9,52a5.25,5.25,0,0,1-1.56-.44,3.12,3.12,0,0,1-1.06-.68,2.38,2.38,0,0,1-.62-.94l-2.86-6-2.37,3.68c-.75,1.24-1.62,2.55-2.49,3.92a5.75,5.75,0,0,1-.5.44,1.25,1.25,0,0,1-.87.31,1.82,1.82,0,0,1-1.06-.5,10.82,10.82,0,0,1-1.12-1.25,12.18,12.18,0,0,1-.87-1.55,3.48,3.48,0,0,1-.31-1.43,3.12,3.12,0,0,1,.74-1.75,13.9,13.9,0,0,1,1.87-2c.75-.69,1.56-1.43,2.43-2.12a28.61,28.61,0,0,1,2.49-1.81c-.93-1.55-1.81-3.05-2.61-4.42s-1.5-2.55-2.12-3.55S135,30,134.64,29.42a10.2,10.2,0,0,1-.5-1.06c0-.13.19-.25.56-.31a5.43,5.43,0,0,1,1.68-.19,12,12,0,0,1,2.31.19,6.24,6.24,0,0,1,1.74.56,3.43,3.43,0,0,1,1.24,1.05,6.86,6.86,0,0,1,1,1.69l1.87,4.23c.5-.62.87-1.18,1.24-1.74l1.12-1.68c.38-.56.81-1.25,1.25-1.93s1-1.44,1.62-2.37a1.1,1.1,0,0,1,.87-.44,1.9,1.9,0,0,1,1.25.56A5.88,5.88,0,0,1,153,29.29a9.69,9.69,0,0,1,.81,1.56,4.67,4.67,0,0,1,.31,1.24,2.61,2.61,0,0,1-.81,1.62,27.17,27.17,0,0,1-1.93,2.06c-.75.68-1.56,1.37-2.43,2a17.22,17.22,0,0,1-2.3,1.62,15,15,0,0,0,1.05,1.87c.44.68.88,1.43,1.37,2.24s1,1.56,1.5,2.37.93,1.49,1.37,2.18.75,1.3,1,1.8C153.07,50.65,153.19,51.08,153.19,51.33Z"/><path class="cls-3" d="M122.81,27.55a12.17,12.17,0,0,1,4.23.68,6.45,6.45,0,0,1,2.87,2.06,8,8,0,0,1,1.61,3.24,18.12,18.12,0,0,1,.5,4.35,25.55,25.55,0,0,1-.18,2.93,22.39,22.39,0,0,1-.69,3.24,12.4,12.4,0,0,1-1.37,3.11,11.11,11.11,0,0,1-2.18,2.68,11.53,11.53,0,0,1-3.24,1.87,13.59,13.59,0,0,1-4.42.68,11.38,11.38,0,0,1-4.67-.87,7.53,7.53,0,0,1-3-2.3,8.77,8.77,0,0,1-1.55-3.43,18.49,18.49,0,0,1-.44-4.23,20.84,20.84,0,0,1,.62-5.17A13.33,13.33,0,0,1,113,31.91a10.53,10.53,0,0,1,3.8-3.18A13.91,13.91,0,0,1,122.81,27.55Zm-.69,5.23a4.17,4.17,0,0,0-2.05.43,5.43,5.43,0,0,0-1.43,1.12A6.8,6.8,0,0,0,117.7,36a9.06,9.06,0,0,0-.56,1.81,10,10,0,0,0-.25,1.81,14.55,14.55,0,0,0-.06,1.55,8,8,0,0,0,1.06,4.55,3.46,3.46,0,0,0,2.92,1.43,3.38,3.38,0,0,0,2.56-1,7,7,0,0,0,1.55-2.42,11.59,11.59,0,0,0,.75-2.93,20.42,20.42,0,0,0,.19-2.55,7.66,7.66,0,0,0-.87-3.93A3.14,3.14,0,0,0,122.12,32.78Z"/><path class="cls-3" d="M103.94,32.65l-1.31,18.87c0,.31-.12.5-.37.5h-1.87a4.12,4.12,0,0,1-2.74-.75,2.64,2.64,0,0,1-.81-2.12c0-.31,0-.87.06-1.55s.07-1.5.13-2.37.12-1.93.25-3,.18-2.18.25-3.24.18-2.17.25-3.3.12-2.11.24-3.05H92.61c-.25,0-.38-.18-.38-.49l.13-1.93a4.34,4.34,0,0,1,.12-.88,1.35,1.35,0,0,1,.38-.74,1.81,1.81,0,0,1,.68-.56,2.58,2.58,0,0,1,1.06-.19h15.19a.93.93,0,0,1,.38.12.4.4,0,0,1,.18.38l-.12,2a2.94,2.94,0,0,1-.56,1.62c-.31.43-1,.62-2,.62h-3.74Z"/><path class="cls-3" d="M51.7,52A4,4,0,0,1,49,51.27,2.83,2.83,0,0,1,48.15,49c0-.25,0-.75.06-1.37s.06-1.43.12-2.3.13-1.87.25-2.93.19-2.12.25-3.24c.19-2.3.31-4.17.38-5.6s.12-2.56.18-3.36a18.41,18.41,0,0,1,.19-1.94c.06-.31.19-.43.44-.43.68,0,1.43,0,2.18-.06s1.43-.07,2.11-.13,1.37-.06,2-.06a15.93,15.93,0,0,1,1.62-.06,11.07,11.07,0,0,1,3.74.56,6,6,0,0,1,4,3.92,9.63,9.63,0,0,1,.44,3.11A10.53,10.53,0,0,1,65,39.88a6.89,6.89,0,0,1-3.36,3.17l2.86,4.11c.5.75.94,1.37,1.19,1.81a2.72,2.72,0,0,1,.43.93,1.51,1.51,0,0,1-.31.69,4,4,0,0,1-.87.87,5.15,5.15,0,0,1-3.18,1.06,2.72,2.72,0,0,1-1.86-.69A7.53,7.53,0,0,1,58.48,50a11.34,11.34,0,0,1-1-2.67c-.25-1-.63-2.06-.88-3.18a12.27,12.27,0,0,1-2-.25c-.06,1-.12,1.93-.19,2.87s-.12,1.74-.18,2.42-.06,1.31-.13,1.75a6,6,0,0,0-.06.81.54.54,0,0,1-.12.37.63.63,0,0,1-.44.13H51.7Zm5.54-19.37a4.88,4.88,0,0,0-.94.07c-.31.06-.68.06-1,.12-.07.81-.13,1.74-.13,2.86S55,38,54.87,39.25a9,9,0,0,0,2.06.25,3.17,3.17,0,0,0,1.74-.43,3.29,3.29,0,0,0,1.06-1,3,3,0,0,0,.5-1.24,9.9,9.9,0,0,0,.12-1.25,2.65,2.65,0,0,0-3.11-2.93Z"/><path class="cls-3" d="M34.7,52A4.1,4.1,0,0,1,32,51.27a2.64,2.64,0,0,1-.81-2.12c0-.43.06-1.24.12-2.3s.19-2.37.25-3.74.25-2.86.31-4.48.25-3.05.31-4.42.19-2.61.25-3.61.13-1.74.13-2.12.19-.5.56-.5h12a.91.91,0,0,1,.37.13.37.37,0,0,1,.19.37l-.13,2A2.91,2.91,0,0,1,45,32.09c-.31.44-1,.63-2,.63H38.31L38,37.51h4.85a.82.82,0,0,1,.38.13.37.37,0,0,1,.19.37l-.13,2a2.91,2.91,0,0,1-.56,1.62c-.31.44-1,.62-2,.62H37.81l-.37,5h7.47a.89.89,0,0,1,.37.12.37.37,0,0,1,.19.37l-.37,2a3.05,3.05,0,0,1-.56,1.62,2.43,2.43,0,0,1-2,.62Z"/><path class="cls-3" d="M11.16,52a.33.33,0,0,1-.37-.37l.12-1.81a3.93,3.93,0,0,1,.13-.75,1.29,1.29,0,0,1,.31-.74A18.1,18.1,0,0,1,12.72,46c.56-.81,1.18-1.8,2-3s1.68-2.61,2.68-4.29,2.24-3.68,3.61-6.11H13.22c-.19,0-.32-.06-.32-.12s-.06-.19-.06-.37L13,30.23a4.34,4.34,0,0,1,.12-.88,2,2,0,0,1,.31-.74,1.69,1.69,0,0,1,.75-.56,3.37,3.37,0,0,1,1.24-.19h13a.89.89,0,0,1,.37.12.38.38,0,0,1,.19.38l-.13,1.8a3.26,3.26,0,0,1-.43,1.44c-.06.12-.38.62-1,1.61s-1.31,2.18-2.24,3.68S23.24,40,22.12,41.81l-3.36,5.41h8.65a1,1,0,0,1,.38.13.38.38,0,0,1,.18.37l-.12,2a2.91,2.91,0,0,1-.56,1.61c-.31.44-1,.63-2,.63H11.16Z"/></g></svg>