<?xml version="1.0" encoding="utf-8"?>
<!-- Generator: Adobe Illustrator 24.0.2, SVG Export Plug-In . SVG Version: 6.00 Build 0)  -->
<svg version="1.1" id="Capa_1" focusable="false" xmlns="http://www.w3.org/2000/svg" xmlns:xlink="http://www.w3.org/1999/xlink"
	 x="0px" y="0px" viewBox="0 0 448 512" style="enable-background:new 0 0 448 512;" xml:space="preserve">
<style type="text/css">
	.st0{fill:#2EA684;}
</style>
<path class="st0" d="M411,132.7c-16.7-25.3-38.4-47-63.7-63.7C311.9,45.6,269.5,32,224,32s-87.9,13.6-123.3,37
	c-25.3,16.7-47,38.4-63.7,63.7C13.6,168.1,0,210.5,0,256s13.6,87.9,37,123.3c16.7,25.3,38.4,47,63.7,63.7
	c35.4,23.4,77.7,37,123.3,37s87.9-13.6,123.3-37c25.3-16.7,47-38.4,63.7-63.7c23.4-35.4,37-77.7,37-123.3S434.4,168.1,411,132.7z
	 M357.2,325.6l-12.5,54.3c-1.3,5.7-6.4,9.7-12.2,9.7C199,389.6,90.4,281.3,90.4,147.5c0.2-5.8,4.1-10.7,9.7-12.2l54.3-12.5
	c0.9-0.2,1.9-0.3,2.8-0.3c4.9,0.2,9.3,3.2,11.5,7.6l25,58.4c0.6,1.6,1,3.2,1,4.9c-0.2,3.7-1.9,7.2-4.6,9.7L158.6,229
	c19.2,40.6,51.9,73.3,92.5,92.5l25.9-31.6c2.5-2.7,6-4.4,9.7-4.6c1.7,0.1,3.4,0.4,4.9,1l58.4,25c4.4,2.2,7.3,6.6,7.6,11.5
	C357.6,323.7,357.4,324.7,357.2,325.6z"/>
</svg>
