{"accessors":[{"name":"mesh_0-Mesh_positions","componentType":5126,"count":6369,"min":[-21.617937088012695,-30.35736846923828,-24.235544204711914],"max":[21.61802864074707,28.96370506286621,24.930728912353516],"type":"VEC3","bufferView":0,"byteOffset":0},{"name":"mesh_0-Mesh_texcoords","componentType":5126,"count":6369,"min":[0,0],"max":[0.75,1],"type":"VEC2","bufferView":1,"byteOffset":0},{"name":"mesh_0-Mesh_0_indices","componentType":5123,"count":36864,"min":[0],"max":[6368],"type":"SCALAR","bufferView":2,"byteOffset":0}],"asset":{"generator":"obj2gltf","version":"2.0"},"buffers":[{"name":"input","byteLength":201108,"uri":"data:application/octet-stream;base64,"}],"bufferViews":[{"name":"bufferView_0","buffer":0,"byteLength":76428,"byteOffset":0,"byteStride":12,"target":34962},{"name":"bufferView_1","buffer":0,"byteLength":50952,"byteOffset":76428,"byteStride":8,"target":34962},{"name":"bufferView_2","buffer":0,"byteLength":73728,"byteOffset":127380,"target":34963}],"materials":[{"name":"default","pbrMetallicRoughness":{"baseColorFactor":[0.5,0.5,0.5,1],"metallicFactor":0,"roughnessFactor":1},"emissiveFactor":[0,0,0],"alphaMode":"OPAQUE","doubleSided":false}],"meshes":[{"name":"mesh_0-Mesh","primitives":[{"attributes":{"POSITION":0,"TEXCOORD_0":1},"indices":2,"material":0,"mode":4}]}],"nodes":[{"name":"mesh_0","mesh":0}],"scene":0,"scenes":[{"nodes":[0]}]}
