{"accessors":[{"name":"pCube1_1_positions","componentType":5126,"count":68,"min":[-10.800865173339844,0.03521899878978729,-10.332216262817383],"max":[11.940595626831055,5.784584045410156,15.429180145263672],"type":"VEC3","bufferView":0,"byteOffset":0},{"name":"pCube1_1_normals","componentType":5126,"count":68,"min":[-1,-1,-1],"max":[1,1,1],"type":"VEC3","bufferView":0,"byteOffset":816},{"name":"pCube1_1_texcoords","componentType":5126,"count":68,"min":[0.0019499999471008778,0.0019920000340789557],"max":[0.9768720269203186,0.9980080127716064],"type":"VEC2","bufferView":1,"byteOffset":0},{"name":"pCube1_1_0_indices","componentType":5123,"count":126,"min":[0],"max":[67],"type":"SCALAR","bufferView":2,"byteOffset":0}],"asset":{"generator":"obj2gltf","version":"2.0"},"buffers":[{"name":"input","byteLength":2428,"uri":"data:application/octet-stream;base64,"}],"bufferViews":[{"name":"bufferView_0","buffer":0,"byteLength":1632,"byteOffset":0,"byteStride":12,"target":34962},{"name":"bufferView_1","buffer":0,"byteLength":544,"byteOffset":1632,"byteStride":8,"target":34962},{"name":"bufferView_2","buffer":0,"byteLength":252,"byteOffset":2176,"target":34963}],"materials":[{"name":"lambert2SG","pbrMetallicRoughness":{"baseColorFactor":[0.5,0.5,0.5,1],"metallicFactor":0,"roughnessFactor":1},"emissiveFactor":[0,0,0],"alphaMode":"OPAQUE","doubleSided":false}],"meshes":[{"name":"pCube1_1","primitives":[{"attributes":{"POSITION":0,"NORMAL":1,"TEXCOORD_0":2},"indices":3,"material":0,"mode":4}]}],"nodes":[{"name":"pCube1","mesh":0}],"scene":0,"scenes":[{"nodes":[0]}]}
